<?xml version="1.0" encoding="UTF-8"?> <svg xmlns="http://www.w3.org/2000/svg" width="179" height="75" viewBox="0 0 179 75" fill="none"> <path fill-rule="evenodd" clip-rule="evenodd" d="M87.5875 41.4859L88.6224 41.7445V41.937H85.0648V41.7445L86.0997 41.4859V30.2011H84.3109C84.3102 30.4397 84.2855 30.6693 84.2374 30.8915C84.1886 31.1163 84.1151 31.3329 84.0168 31.5413C83.9185 31.7489 83.8079 31.9422 83.6835 32.121C83.5598 32.2997 83.4224 32.4641 83.2726 32.6147L83.2691 32.6181H83.0801L83.0987 32.3747L83.1159 32.1402L83.1331 31.9263L83.1502 31.7001C83.1619 31.5447 83.1674 31.3872 83.1674 31.2263C83.1674 31.0077 83.1619 30.8151 83.1502 30.6487C83.1447 30.5655 83.1386 30.4871 83.1331 30.4135C83.1269 30.3379 83.1214 30.2698 83.1159 30.2086C83.1097 30.1371 83.1042 30.0732 83.0987 30.0147C83.0932 29.9549 83.0877 29.8985 83.0815 29.8462L83.0801 29.8339H90.6091L90.6064 29.8476C90.5954 29.8992 90.5851 29.9549 90.5762 30.0154C90.5679 30.0752 90.5603 30.1399 90.5549 30.2086C90.5494 30.2712 90.5439 30.3393 90.5397 30.4135C90.5356 30.4871 90.5315 30.5655 90.5287 30.648C90.526 30.7312 90.5239 30.8213 90.5226 30.9176C90.5212 31.0125 90.5205 31.1156 90.5205 31.2256C90.5205 31.3075 90.5212 31.3872 90.5226 31.4649C90.5239 31.544 90.526 31.6224 90.5287 31.7001C90.5315 31.7771 90.5349 31.8528 90.5397 31.9263C90.5439 31.9992 90.5494 32.0708 90.5549 32.1395C90.561 32.2207 90.5679 32.2997 90.5762 32.3768C90.5844 32.4538 90.5947 32.5301 90.6064 32.6051L90.6085 32.6181H90.4181L90.4147 32.6147C90.2648 32.4648 90.1274 32.3004 90.0037 32.121C89.88 31.9422 89.7687 31.7489 89.6711 31.5413C89.4766 31.1287 89.3784 30.6824 89.377 30.2018H87.5882V41.4866L87.5875 41.4859ZM36.5764 70.1212H18.0192V67.7337H36.5764H55.1336V70.1212H36.5764ZM32.8779 58.9732L33.2228 59.0599V59.1307H32.0285V59.0599L32.3735 58.9732V55.3301H31.7983V55.2304C32.1577 55.1513 32.5178 55.0743 32.8772 54.9966V58.9732H32.8779ZM37.0595 59.0867C37.1165 59.0867 37.1729 59.0805 37.2279 59.0667C37.2828 59.0537 37.3371 59.0337 37.39 59.0069C37.443 58.9801 37.4931 58.9471 37.5405 58.9072C37.5873 58.8673 37.6319 58.8206 37.6725 58.7669C37.7137 58.7133 37.7501 58.6535 37.7831 58.5861C37.8161 58.5187 37.845 58.4444 37.8697 58.3633C37.8945 58.2821 37.913 58.1948 37.9254 58.0999C37.9378 58.0057 37.9439 57.9053 37.9439 57.7981C37.9439 57.6028 37.9164 57.4302 37.8608 57.2796C37.8333 57.2039 37.8003 57.1338 37.7618 57.0698C37.7233 57.0059 37.6801 56.9468 37.6319 56.8931C37.5832 56.8402 37.5296 56.7927 37.4711 56.7522C37.4127 56.7116 37.3488 56.6779 37.2801 56.6497C37.2114 56.6222 37.1392 56.6016 37.0643 56.5871C36.9887 56.5734 36.9104 56.5665 36.8286 56.5665C36.7963 56.5665 36.7647 56.5679 36.7345 56.5706C36.7042 56.5734 36.6747 56.5775 36.6458 56.5837C36.6169 56.5892 36.5895 56.5954 36.564 56.6022C36.5379 56.6091 36.5139 56.616 36.4912 56.6236C36.4644 56.6311 36.439 56.6394 36.4142 56.649C36.3895 56.6586 36.3661 56.6689 36.3428 56.6806L36.3297 56.6875C36.4369 56.1505 36.5441 55.6134 36.6506 55.0764L36.7152 55.0894C36.7345 55.0929 36.7564 55.097 36.7819 55.1011C36.8073 55.1046 36.8362 55.1087 36.8671 55.1121C36.8994 55.1163 36.9324 55.1197 36.9674 55.1231C37.0025 55.1266 37.0396 55.1293 37.0794 55.1328C37.1193 55.1355 37.1585 55.1376 37.1976 55.139C37.2368 55.1403 37.2773 55.141 37.3179 55.141C37.3791 55.141 37.4395 55.1396 37.4979 55.1369C37.557 55.1341 37.6148 55.1293 37.6711 55.1238C37.7275 55.1183 37.7811 55.1114 37.8312 55.1053C37.8814 55.0984 37.9288 55.0915 37.9728 55.0839C38.0243 55.0764 38.0752 55.0674 38.1233 55.0585C38.1721 55.0489 38.2195 55.0386 38.2655 55.0269L38.2752 55.0241L38.2683 55.0943L38.2669 55.0956C38.1205 55.2579 37.9178 55.3803 37.6594 55.4635C37.5309 55.5048 37.3846 55.5357 37.2224 55.5564C37.0616 55.577 36.8843 55.5873 36.6912 55.5873L36.5221 56.4345L36.5716 56.4235C36.5922 56.4187 36.6149 56.4138 36.6376 56.4076H36.6382C36.6596 56.4035 36.6829 56.4001 36.7083 56.3966C36.7338 56.3932 36.7613 56.3905 36.7908 56.387C36.821 56.3843 36.8533 56.3822 36.8884 56.3808C36.9234 56.3795 36.9612 56.3788 37.0018 56.3788C37.1172 56.3788 37.2272 56.3877 37.331 56.4049C37.4347 56.4221 37.533 56.4482 37.6258 56.4833C37.7185 56.5184 37.8037 56.5596 37.8828 56.6077C37.9618 56.6559 38.034 56.7109 38.0999 56.7728C38.1659 56.8347 38.2236 56.9027 38.2738 56.9777C38.324 57.0527 38.3666 57.1338 38.4009 57.2218C38.4353 57.3098 38.4614 57.4013 38.4793 57.4976C38.4964 57.5931 38.5054 57.6935 38.5054 57.7974C38.5054 57.9012 38.4964 58.0016 38.4793 58.0972C38.4621 58.1934 38.436 58.2849 38.4009 58.3729C38.3659 58.4602 38.3253 58.5421 38.2772 58.617C38.2291 58.692 38.1748 58.7601 38.1144 58.8219C38.0532 58.8838 37.9865 58.9388 37.913 58.987C37.8395 59.0351 37.7605 59.0771 37.6746 59.1114C37.5887 59.1465 37.4993 59.1726 37.4065 59.1898C37.3138 59.207 37.2169 59.216 37.1165 59.216C37.0416 59.216 36.9688 59.2098 36.8994 59.1974C36.83 59.185 36.7633 59.1658 36.6994 59.141C36.6355 59.1156 36.5764 59.086 36.5214 59.0509C36.4665 59.0159 36.4156 58.9767 36.3689 58.932C36.3221 58.8873 36.2809 58.8391 36.2452 58.7869C36.2087 58.7346 36.1778 58.6789 36.1517 58.6184C36.1256 58.5586 36.1057 58.496 36.0926 58.4314C36.0796 58.3667 36.0734 58.2993 36.0734 58.2299C36.0734 58.093 36.0878 57.9734 36.116 57.8716C36.1448 57.7692 36.1874 57.6846 36.2445 57.6179C36.3015 57.5512 36.3647 57.501 36.4335 57.4673C36.5022 57.4336 36.5764 57.4171 36.6561 57.4171C36.6754 57.4171 36.696 57.4192 36.718 57.4233L36.7784 57.435L36.8059 57.4405L36.8375 57.448C36.7984 57.6055 36.7592 57.7637 36.7193 57.9211H36.7138C36.6279 57.9211 36.5537 57.9308 36.4891 57.95C36.4252 57.9693 36.3723 57.9982 36.3304 58.0367C36.2878 58.0752 36.2562 58.1206 36.2349 58.1714C36.2136 58.223 36.2033 58.2808 36.2033 58.3447C36.2033 58.3901 36.2087 58.4355 36.2197 58.4802C36.2307 58.5249 36.2472 58.5703 36.2685 58.615C36.2905 58.6597 36.3166 58.7023 36.3462 58.7422C36.3764 58.7821 36.4101 58.8199 36.4479 58.855C36.4857 58.89 36.5276 58.9217 36.573 58.9498C36.6183 58.978 36.6671 59.0028 36.7193 59.0234C36.7716 59.0441 36.8259 59.0599 36.8829 59.0702C36.9392 59.0805 36.9983 59.086 37.0595 59.086V59.0867ZM40.7924 57.8558C40.7924 57.7561 40.7876 57.6633 40.7773 57.5773C40.7677 57.4914 40.7525 57.4123 40.7326 57.3394C40.7127 57.2672 40.6893 57.2005 40.6639 57.1407C40.6385 57.0815 40.6096 57.0279 40.578 56.9811C40.5464 56.9344 40.5127 56.8945 40.4763 56.8601C40.4399 56.8264 40.4007 56.7982 40.3595 56.7762C40.3175 56.7542 40.2763 56.7377 40.2344 56.7274C40.1932 56.7164 40.1512 56.7109 40.1093 56.7109C40.0695 56.7109 40.0303 56.7164 39.9911 56.7267C39.9519 56.7377 39.9128 56.7542 39.8743 56.7755C39.8358 56.7975 39.7987 56.8244 39.7637 56.8574C39.7286 56.8897 39.6956 56.9282 39.664 56.9722C39.6324 57.0162 39.6042 57.0657 39.5788 57.1221C39.5534 57.1785 39.5314 57.2411 39.5121 57.3098C39.4929 57.3786 39.4785 57.4529 39.4688 57.5333C39.4592 57.6138 39.4544 57.6997 39.4544 57.7919C39.4544 57.9149 39.4592 58.0277 39.4695 58.1309C39.4791 58.234 39.4943 58.3275 39.5149 58.4121C39.5348 58.4967 39.5582 58.5723 39.5843 58.6404C39.6104 58.7085 39.64 58.769 39.6723 58.8213C39.7046 58.8735 39.7396 58.9182 39.7774 58.956C39.8152 58.9932 39.8557 59.0234 39.899 59.0461C39.9423 59.0688 39.987 59.086 40.031 59.0977C40.0756 59.1087 40.1203 59.1149 40.1657 59.1149C40.2014 59.1149 40.2371 59.1094 40.2736 59.0977C40.31 59.0867 40.3464 59.0695 40.3835 59.0468C40.4206 59.0241 40.4557 58.9945 40.4893 58.9588C40.523 58.923 40.5553 58.8797 40.5855 58.8302C40.6158 58.7807 40.6433 58.7236 40.6687 58.659C40.6934 58.5943 40.7154 58.5214 40.7347 58.441C40.7539 58.3605 40.7683 58.2718 40.778 58.1742C40.7876 58.0765 40.7924 57.9706 40.7924 57.8551V57.8558ZM38.8937 57.107C38.8937 56.9227 38.9026 56.7508 38.9211 56.5919C38.939 56.4331 38.9665 56.2873 39.0036 56.1546C39.04 56.0219 39.0826 55.9009 39.1314 55.7915C39.1802 55.6822 39.2345 55.5845 39.295 55.4986C39.3561 55.4126 39.4207 55.3384 39.4901 55.2751C39.5595 55.2118 39.6338 55.1596 39.7114 55.1197C39.7898 55.0791 39.8688 55.0489 39.9499 55.0282C40.0303 55.0076 40.1121 54.998 40.1952 54.998C40.2742 54.998 40.3491 55.0035 40.4199 55.0145C40.4907 55.0255 40.5581 55.042 40.6206 55.0647C40.6831 55.0867 40.7409 55.1128 40.7945 55.1424C40.8474 55.172 40.8962 55.205 40.9395 55.2421C40.9827 55.2792 41.0212 55.3191 41.0549 55.3618C41.0886 55.4051 41.1168 55.4511 41.1401 55.5006C41.1635 55.5502 41.1807 55.601 41.1923 55.6526C41.204 55.7042 41.2095 55.7578 41.2095 55.8115C41.2095 55.8541 41.2068 55.8933 41.2006 55.9277C41.1978 55.9456 41.1944 55.9607 41.191 55.9744C41.1875 55.9882 41.1841 55.9999 41.18 56.0102L41.1642 56.0466L41.1484 56.0796C40.9807 56.0398 40.813 56.0006 40.646 55.9614L40.6769 55.8679C40.6811 55.8541 40.6845 55.8403 40.6879 55.8273C40.6914 55.8142 40.6941 55.7998 40.6976 55.7853C40.7031 55.7571 40.7058 55.7276 40.7058 55.6973C40.7058 55.4958 40.6605 55.3459 40.5697 55.2476C40.5244 55.1988 40.4708 55.1616 40.4083 55.1369C40.3457 55.1121 40.2749 55.0998 40.1952 55.0998C40.1086 55.0998 40.0207 55.1293 39.932 55.1878C39.8873 55.2173 39.8447 55.2565 39.8035 55.3054C39.7623 55.3542 39.7224 55.4133 39.6839 55.4821C39.6077 55.6196 39.5458 55.8025 39.4977 56.0301C39.4737 56.1436 39.4558 56.2715 39.4441 56.4131C39.4324 56.5541 39.4262 56.7095 39.4262 56.878V57.1297L39.4496 57.074C39.462 57.0437 39.4791 57.0121 39.5011 56.9784C39.5231 56.9447 39.5492 56.9096 39.5802 56.8732C39.6111 56.836 39.6461 56.801 39.6853 56.768C39.7245 56.735 39.7678 56.7033 39.8152 56.6731C39.8626 56.6428 39.9162 56.6201 39.9746 56.605C40.033 56.5899 40.0976 56.5823 40.167 56.5823C40.3327 56.5823 40.4887 56.6132 40.633 56.6751C40.7051 56.7061 40.7732 56.7432 40.8357 56.7865C40.8982 56.8299 40.9566 56.8801 41.0096 56.9358C41.0625 56.9915 41.1106 57.0533 41.1525 57.12C41.1944 57.1874 41.2308 57.2596 41.2618 57.338C41.3236 57.4941 41.3545 57.6667 41.3545 57.8558C41.3545 58.0642 41.3236 58.2519 41.2618 58.4197C41.2308 58.5036 41.1944 58.5813 41.1525 58.6528C41.1106 58.7243 41.0632 58.7896 41.0102 58.8481C40.9573 58.9072 40.8989 58.9588 40.8364 59.0049C40.7738 59.0502 40.7058 59.0887 40.6337 59.1211C40.5615 59.1527 40.4859 59.1768 40.4083 59.1926C40.3306 59.2084 40.2502 59.2166 40.167 59.2166C40.0729 59.2166 39.9822 59.2077 39.8963 59.1905C39.8097 59.1733 39.7279 59.1472 39.6496 59.1121C39.5712 59.0771 39.4984 59.031 39.431 58.9739C39.3637 58.9168 39.3025 58.8488 39.2462 58.7697C39.1905 58.6906 39.1404 58.5998 39.0971 58.4967C39.0538 58.3942 39.0167 58.2801 38.9857 58.1536C38.9246 57.9019 38.8937 57.5911 38.8937 57.2218V57.1063V57.107ZM35.8569 55.3899C35.7765 55.4896 35.7009 55.5928 35.6294 55.6987C35.558 55.8046 35.4913 55.9146 35.4288 56.0274C35.3669 56.1402 35.3092 56.2612 35.257 56.3898C35.2047 56.5184 35.1573 56.6559 35.1154 56.8003C35.0735 56.9447 35.0364 57.1008 35.0048 57.2672C34.9732 57.4343 34.947 57.6117 34.9257 57.8008C34.9044 57.9899 34.8886 58.1941 34.8783 58.4142C34.868 58.6342 34.8625 58.8701 34.8625 59.1218V59.1293H34.2722V59.1218C34.2722 58.8914 34.2832 58.672 34.3038 58.4637C34.3251 58.2553 34.3567 58.0587 34.3987 57.8737C34.4413 57.688 34.4887 57.5127 34.5423 57.3463C34.5952 57.1799 34.6543 57.0231 34.7189 56.8766C34.7835 56.7295 34.8508 56.5912 34.9223 56.462C34.9931 56.3327 35.068 56.2124 35.1456 56.101C35.224 55.9889 35.3003 55.885 35.3752 55.7881C35.4466 55.6959 35.5174 55.61 35.5868 55.5309H33.7389L33.6235 56.0205H33.5238V55.0846H35.8576V55.3879L35.8562 55.3899H35.8569ZM36.8478 3.33848L37.5866 2.37854L36.5764 0L35.5655 2.37854L36.3043 3.33848V9.05276H36.8478V3.33848ZM31.4272 3.33848V9.05276H31.9708V3.33848L32.7095 2.37854L31.6986 0L30.6884 2.37854L31.4272 3.33848ZM33.8654 3.33848V9.05276H34.409V3.33848L35.1477 2.37854L34.1375 0L33.1273 2.37854L33.8661 3.33848H33.8654ZM38.7425 3.33848V9.05276H39.286V3.33848L40.0248 2.37854L39.0146 0L38.0044 2.37854L38.7432 3.33848H38.7425ZM41.1807 3.33848V9.05276H41.7242V3.33848L42.463 2.37854L41.4528 0L40.4419 2.37854L41.1807 3.33848ZM36.575 40.2901L30.7448 40.2942L31.0437 41.7775H36.575H41.6919L42.2108 41.2837H38.8923V40.8223H42.3015L42.4053 40.2942L36.575 40.2901ZM31.9694 16.2991H31.4258V37.8785H30.5194H29.6913V39.751H36.5743H43.4581V37.8785H42.5523H41.7236V16.2991H41.18V37.8785H41.103H39.2854V16.2991H38.7418V37.8785H38.6648H36.8472V16.2991H36.3036V37.8785H34.4859H34.409V16.2991H33.8654V37.8785H32.0477H31.9708V16.2991H31.9694ZM36.575 9.93912H43.8937L43.8683 10.1447H36.5757H29.2831L29.2577 9.93912H36.5757H36.575ZM36.575 10.2871H43.8518C43.8271 10.5085 43.8058 10.7354 43.7879 10.9678H36.5757H29.3635C29.345 10.7354 29.3237 10.5085 29.2996 10.2871H36.5757H36.575ZM36.575 11.1095H43.7769C43.77 11.2078 43.7632 11.3075 43.7577 11.4079C43.7501 11.5344 43.7432 11.6623 43.7371 11.7896H36.575H29.413C29.4068 11.6617 29.3999 11.5344 29.3924 11.4079C29.3869 11.3075 29.38 11.2078 29.3731 11.1095H36.5743H36.575ZM36.575 11.9319H43.7302C43.7206 12.1581 43.7123 12.3844 43.7068 12.612H36.575H29.4432C29.4377 12.3844 29.4302 12.1574 29.4199 11.9319H36.575ZM36.575 12.7543H43.7034C43.6986 12.9805 43.6958 13.2068 43.6951 13.4344H36.575H29.4549C29.4542 13.2068 29.4515 12.9799 29.4467 12.7543H36.575ZM36.575 13.5767H43.6951C43.6951 13.803 43.6972 14.0299 43.7006 14.2568H36.575H29.4494C29.4535 14.0292 29.4549 13.803 29.4556 13.5767H36.5757H36.575ZM36.575 14.3991H43.7034L43.713 14.7746H36.575H29.437L29.4467 14.3991H36.575ZM36.575 15.2002H43.7274C44.0126 22.4198 46.1505 30.045 48.9949 35.1445L48.8753 35.4464C48.9749 36.1141 49.0739 36.7811 49.1728 37.4481C49.3886 37.2494 47.6967 37.3037 47.6507 38.2031C48.8272 38.6783 48.4375 39.6375 48.386 39.4993C47.2555 39.5007 46.3271 39.72 46.1306 40.7274C48.2094 41.2672 48.3812 42.2664 48.6492 43.1094C49.2292 45.8022 47.3572 47.9731 44.5919 47.4677C45.1376 47.9566 46.1801 47.9525 47.0061 47.5832C49.0883 46.6391 49.7336 44.3705 48.9543 42.2987C48.4843 41.3669 47.997 40.7247 46.7559 40.4881C48.184 39.881 49.2512 40.5837 49.7542 42.1295C50.2572 43.6753 49.2367 46.5944 47.7971 47.6183C46.5037 48.6779 44.7617 48.5713 42.8849 48.1147C44.6751 49.0726 47.0246 49.2026 48.8533 47.3171C50.6819 45.4316 50.7816 42.5834 49.7542 40.0453C50.3775 40.6834 51.2963 43.3301 50.8118 44.9722C50.3273 46.6143 49.5288 48.0858 47.2583 49.2438C44.4504 50.2939 42.6149 48.7934 41.549 48.0088C42.4795 49.7355 44.6662 50.4163 47.1394 49.7156C51.912 48.0391 52.1477 42.6838 50.5033 38.6109C50.0401 37.6599 50.6558 37.8077 50.8283 38.2856C53.839 43.7998 51.2984 50.3365 45.308 50.582C42.3737 50.582 40.9566 48.3527 40.435 47.205C40.099 46.5373 40.376 45.2968 40.901 46.714C41.426 48.1312 44.7775 47.4945 44.6614 45.0699C44.4538 40.7316 38.1796 41.4845 38.3975 47.2449C38.392 49.2789 40.2069 51.3356 42.1269 52.1133C44.047 52.8904 46.5099 52.845 48.5386 52.4221C50.5672 51.9992 53.6362 50.5222 55.8009 46.9423C57.9656 43.3618 58.9091 38.2513 58.5868 35.5021C58.2639 32.7529 57.5492 30.7484 56.5204 29.0314C55.4917 27.315 55.4223 24.6106 56.1191 24.5727C56.8152 24.5349 56.7912 25.2803 56.4764 25.8029C56.1617 26.3255 56.1108 27.1926 57.3375 27.9814C58.5649 28.7701 61.315 27.8562 60.8526 25.3567C60.5646 23.4739 58.8377 21.9577 56.7328 21.959C54.6279 21.9597 53.2074 24.964 53.4479 26.8708C53.6885 28.7777 54.2575 28.8003 53.5393 28.997C52.8212 29.1944 50.5033 29.5169 51.4784 30.0505C52.903 30.8667 53.5558 31.9098 54.1619 33.0692C53.3455 32.9124 52.7222 33.7218 53.2225 34.4823C54.5646 36.9846 54.8904 37.3408 55.0849 39.7689C53.4967 36.5569 48.1949 28.2654 47.1985 24.482C47.1909 24.4538 47.1745 24.4393 47.1518 24.4345C45.7478 20.0082 45.0366 15.2291 45.2716 12.0185C45.6557 6.77049 47.5194 3.98349 51.4255 4.06119C52.6192 4.31699 53.1992 4.94549 53.4294 5.78716C50.6929 4.21522 49.1096 7.80263 49.8332 9.43646C49.456 10.5099 49.0505 11.3337 49.0546 13.915C49.0588 16.7144 51.2626 23.1342 52.8102 25.7266C52.7621 25.2989 53.3655 23.7503 53.7104 23.5014C51.2798 19.6747 48.4856 14.8901 50.5857 10.3771C52.7655 11.9745 56.3046 10.5002 56.2174 6.8028C56.1294 3.05999 53.3064 1.79061 51.0585 1.80161C48.9928 1.81261 44.9733 2.87502 43.9542 9.51141H36.575H29.1958C28.1774 2.87502 24.1573 1.81261 22.0922 1.80161C19.8437 1.78992 17.0213 3.0593 16.9327 6.8028C16.8454 10.5002 20.3845 11.9745 22.5643 10.3771C24.6644 14.8901 21.8702 19.6747 19.4396 23.5014C19.7846 23.7503 20.388 25.2989 20.3398 25.7266C21.8867 23.1342 24.0906 16.7144 24.0954 13.915C24.0995 11.3337 23.6941 10.5099 23.3168 9.43646C24.0404 7.80263 22.4578 4.21522 19.7207 5.78716C19.9502 4.94549 20.5309 4.31699 21.7246 4.06119C25.6306 3.98349 27.4936 6.77049 27.8785 12.0185C28.1135 15.2291 27.4022 20.0089 25.9983 24.4345C25.9749 24.4393 25.9584 24.4538 25.9509 24.482C24.9544 28.2647 19.6526 36.5569 18.0645 39.7689C18.259 37.3415 18.5847 36.9846 19.9262 34.4823C20.4264 33.7218 19.8025 32.9117 18.9867 33.0692C19.5929 31.9098 20.2457 30.8667 21.6696 30.0505C22.6454 29.5169 20.3268 29.1937 19.6093 28.997C18.8912 28.8003 19.4602 28.7777 19.7007 26.8708C19.9413 24.964 18.5208 21.9597 16.4159 21.959C14.311 21.9583 12.5848 23.4746 12.2961 25.3567C11.8336 27.8562 14.5838 28.7701 15.8112 27.9814C17.0385 27.1926 16.987 26.3255 16.6722 25.8029C16.3575 25.2803 16.3335 24.5356 17.0296 24.5727C17.7257 24.6099 17.657 27.315 16.6283 29.0314C15.5995 30.7477 14.8848 32.7529 14.5618 35.5021C14.2389 38.2513 15.1831 43.3618 17.3478 46.9423C19.5125 50.5228 22.5815 51.9999 24.6101 52.4221C26.6388 52.845 29.1024 52.8904 31.0217 52.1133C32.9418 51.3356 34.7567 49.2796 34.7512 47.2449C34.969 41.4845 28.6949 40.7316 28.4873 45.0699C28.3712 47.4945 31.7227 48.1312 32.2477 46.714C32.7727 45.2968 33.0497 46.5373 32.7136 47.205C32.192 48.3527 30.775 50.582 27.8407 50.582C21.8496 50.3365 19.309 43.7998 22.3204 38.2856C22.4929 37.8077 23.1086 37.6599 22.6454 38.6109C21.0016 42.6838 21.2366 48.0391 26.0093 49.7156C28.4832 50.4163 30.6692 49.7355 31.5997 48.0088C30.5338 48.7934 28.6983 50.2939 25.8904 49.2438C23.6199 48.0858 22.8213 46.6143 22.3369 44.9722C21.8524 43.3301 22.7705 40.6834 23.3945 40.0453C22.3671 42.5841 22.4674 45.4316 24.2954 47.3171C26.124 49.2026 28.4736 49.0726 30.2637 48.1147C28.387 48.5713 26.6449 48.6786 25.3516 47.6183C23.9119 46.5944 22.8907 43.6753 23.3945 42.1295C23.8975 40.5837 24.9654 39.881 26.3927 40.4881C25.1516 40.7247 24.6644 41.3669 24.1944 42.2987C23.4151 44.3705 24.0604 46.6391 26.1426 47.5832C26.9693 47.9531 28.0111 47.9566 28.5567 47.4677C25.7914 47.9724 23.9195 45.8015 24.4995 43.1094C24.7675 42.2664 24.9386 41.2672 27.0181 40.7274C26.8215 39.72 25.8931 39.5007 24.7627 39.4993C24.7111 39.6375 24.3215 38.6783 25.498 38.2031C25.452 37.3037 23.7594 37.2494 23.9758 37.4481C24.0748 36.7811 24.1744 36.1134 24.2734 35.4464L24.1538 35.1445C26.9982 30.0457 29.1354 22.4198 29.4212 15.2002H36.5737H36.575ZM36.575 42.9279H39.3802C39.4826 42.802 39.5898 42.6796 39.7025 42.56H36.5757H33.4489C33.5616 42.679 33.6688 42.802 33.7712 42.9279H36.5764H36.575ZM36.575 43.6031H38.8991C38.9761 43.4787 39.0579 43.3556 39.1445 43.2352H36.5757H34.0069C34.0935 43.3556 34.1746 43.478 34.2523 43.6031H36.5757H36.575ZM36.575 44.2784H38.5349C38.5927 44.1546 38.6531 44.0315 38.7191 43.9112H36.575H34.431C34.4969 44.0322 34.5574 44.1546 34.6151 44.2784H36.575ZM36.575 44.9543H38.2704C38.3102 44.8306 38.3542 44.7082 38.4023 44.5865H36.575H34.7478C34.7959 44.7082 34.8398 44.8306 34.8804 44.9543H36.5757H36.575ZM36.575 45.6296H38.0951C38.1192 45.5065 38.148 45.3841 38.1803 45.2624H36.5757H34.9711C35.0034 45.3841 35.0316 45.5065 35.0556 45.6296H36.5757H36.575ZM36.575 46.3049H38.0051C38.014 46.1825 38.0264 46.0594 38.0436 45.9377H36.575H35.1065C35.1237 46.0601 35.136 46.1825 35.145 46.3049H36.575ZM36.575 46.9808H37.9982C37.9914 46.8584 37.99 46.736 37.9914 46.6129H36.575H35.1587C35.1608 46.7353 35.1587 46.8584 35.1525 46.9808H36.5757H36.575ZM36.575 47.6561H38.0786C38.056 47.5344 38.0374 47.4113 38.0237 47.2889H36.575H35.1264C35.1127 47.412 35.0934 47.5344 35.0707 47.6561H36.5743H36.575ZM36.575 48.3313H38.2518C38.2113 48.2096 38.1762 48.0872 38.1453 47.9641H36.5743H35.0034C34.9725 48.0872 34.9374 48.2103 34.8969 48.3313H36.5737H36.575ZM36.575 49.0073H38.5315C38.471 48.8863 38.416 48.7632 38.3659 48.6394H36.575H34.7842C34.734 48.7632 34.679 48.8863 34.6186 49.0073H36.575ZM36.575 49.6825H38.9363C38.851 49.5622 38.772 49.4398 38.6992 49.3153H36.575H34.4509C34.378 49.4398 34.2983 49.5622 34.2138 49.6825H36.575ZM36.575 50.3585H39.5005C39.3836 50.2388 39.2737 50.1164 39.1713 49.9906H36.575H33.9788C33.8764 50.1164 33.7664 50.2388 33.6496 50.3585H36.575ZM36.575 51.5976C36.6334 51.5969 36.6918 51.5962 36.7503 51.5962C39.051 51.5962 41.1298 52.2117 42.6313 53.2067C44.1054 54.1831 45.0166 55.524 45.0166 56.9976C45.0166 58.4706 44.1047 59.8121 42.6313 60.7886C41.1298 61.7836 39.051 62.399 36.7503 62.399C36.6918 62.399 36.6334 62.3984 36.575 62.3977C36.5166 62.3984 36.4582 62.399 36.3998 62.399C34.099 62.399 32.0202 61.7836 30.5187 60.7886C29.0453 59.8121 28.1334 58.4712 28.1334 56.9976C28.1334 55.524 29.0453 54.1831 30.5187 53.2067C32.0202 52.2117 34.099 51.5962 36.3998 51.5962C36.4582 51.5962 36.5166 51.5969 36.575 51.5976ZM36.575 67.1534H36.7028H44.7067V66.8288V66.3756V66.0793V65.6261V65.3297V64.8766V64.5802V64.1271V63.8307V63.3775V63.0812V62.628V62.5586C44.849 62.3454 45.0833 61.9981 45.5087 61.8977C47.2521 62.4726 46.5429 63.152 47.9737 63.9442C49.4037 64.7363 49.603 64.7618 50.3528 65.7905C50.1933 64.3836 50.0483 62.1652 48.2671 61.6743C46.4859 61.1833 46.4838 61.4563 46.6625 61.2741C47.2755 60.7453 48.5695 60.1704 49.0395 60.037C49.5096 59.9036 50.1494 59.8032 50.2442 59.7654C50.1033 59.4209 49.9892 58.9952 49.8944 58.5098C49.6546 58.7257 49.4154 58.9416 49.1756 59.1575C48.5118 59.7317 47.7737 60.0844 47.1896 59.8637C46.9731 59.7895 47.1621 59.579 47.2576 59.4835C47.7819 58.9258 48.3661 58.7951 48.2437 57.1792C48.1214 55.5632 48.3118 55.2504 48.7935 54.0992C46.1155 55.7888 46.1175 57.7602 46.1718 59.731C46.1849 60.3471 44.6043 61.7994 44.1109 62.0236C44.1707 62.2643 44.4291 62.333 44.5473 62.4692H39.8825C41.0164 62.1769 42.0362 61.7307 42.8836 61.1695C44.4841 60.1085 45.475 58.6342 45.475 56.9976C45.475 55.3611 44.4847 53.8861 42.8836 52.8257C41.1415 51.6712 38.851 51.1087 36.575 51.1396C34.299 51.1094 32.0086 51.6712 30.2665 52.8257C28.666 53.8868 27.6751 55.3617 27.6751 56.9976C27.6751 58.6342 28.666 60.1085 30.2665 61.1695C31.1131 61.7307 32.1336 62.1769 33.2675 62.4692H28.6021C28.7203 62.333 28.9787 62.2643 29.0385 62.0236C28.5451 61.7994 26.9645 60.3471 26.9775 59.731C27.0318 57.7602 27.0339 55.7888 24.3559 54.0992C24.8376 55.2504 25.0286 55.5632 24.9056 57.1792C24.7833 58.7951 25.3674 58.9258 25.8918 59.4835C25.9873 59.579 26.177 59.7895 25.9598 59.8637C25.3757 60.0844 24.6376 59.7317 23.9745 59.1575C23.7346 58.9416 23.4955 58.7257 23.2557 58.5098C23.1608 58.9952 23.0467 59.4209 22.9059 59.7654C23 59.8032 23.6398 59.9036 24.1098 60.037C24.5799 60.1704 25.8739 60.7453 26.4869 61.2741C26.6649 61.4556 26.6635 61.1826 24.8823 61.6743C23.101 62.1652 22.9553 64.3836 22.7966 65.7905C23.5463 64.7624 23.7456 64.7363 25.1757 63.9442C26.6065 63.152 25.8973 62.4726 27.6407 61.8977C28.0668 61.9988 28.3011 62.3454 28.4427 62.5586V62.628V63.0812V63.3775V63.8307V64.1271V64.5802V64.8766V65.3297V65.6261V66.0793V66.3756V66.8288V67.1534H36.4465H36.5743H36.575ZM36.575 52.6882C36.6149 52.6875 36.6547 52.6875 36.6953 52.6875C38.7095 52.6875 40.5299 53.1964 41.8438 54.0195C43.1254 54.822 43.9178 55.9201 43.9178 57.1242C43.9178 58.3282 43.1248 59.4264 41.8438 60.2289C40.5299 61.0513 38.7095 61.5601 36.6953 61.5601C36.6554 61.5601 36.6149 61.5601 36.575 61.5594C36.5352 61.5601 36.4953 61.5601 36.4548 61.5601C34.4406 61.5601 32.6202 61.0513 31.3062 60.2289C30.0246 59.4264 29.2323 58.3282 29.2323 57.1242C29.2323 55.9201 30.0253 54.822 31.3062 54.0195C32.6202 53.1971 34.4406 52.6875 36.4548 52.6875C36.4946 52.6875 36.5352 52.6875 36.575 52.6882ZM36.575 62.0181C36.6149 62.0188 36.6547 62.0188 36.6953 62.0188C38.7961 62.0188 40.7031 61.4831 42.085 60.6174C43.5007 59.731 44.3762 58.4967 44.3762 57.1242C44.3762 55.7516 43.5007 54.5173 42.085 53.631C40.7024 52.7652 38.7961 52.2296 36.6953 52.2296C36.6554 52.2296 36.6149 52.2296 36.575 52.2302C36.5352 52.2302 36.4953 52.2296 36.4548 52.2296C34.3533 52.2296 32.447 52.7652 31.0643 53.631C29.6494 54.5173 28.7732 55.7516 28.7732 57.1242C28.7732 58.4967 29.6487 59.731 31.0643 60.6174C32.447 61.4831 34.3533 62.0188 36.4548 62.0188C36.4946 62.0188 36.5352 62.0188 36.575 62.0181ZM36.575 72.726H52.3388V70.8508H36.575H20.8113V72.726H36.575ZM36.575 75H49.0794V73.8152H36.575H24.0707V75H36.575ZM51.4138 61.6667C52.2075 64.2522 53.4974 65.917 54.8725 67.1506C56.2545 68.3904 60.0678 68.5314 60.645 67.6161C60.911 67.1678 61.4346 65.6165 60.555 64.6655C60.4787 64.191 60.801 64.1126 61.2793 63.7289C61.4415 63.5171 61.5033 63.3404 60.2293 62.8075C60.3743 62.1522 61.9514 62.5008 61.2326 61.3002C60.6959 60.2694 62.0442 60.2756 62.194 59.5034C62.319 58.857 59.74 57.2204 59.4885 56.2344C59.3964 55.3562 59.6609 54.9505 59.2624 54.0882C57.8172 50.5125 54.9763 50.3661 52.8693 50.8302C48.8567 52.0576 50.4318 58.7319 51.4138 61.6653V61.6667ZM47.2913 61.9755C47.0686 61.9163 46.8824 62.1652 47.081 62.3578C47.918 63.271 48.5915 63.6746 49.2952 63.819C48.8609 63.0179 48.1785 62.2388 47.2913 61.9755ZM67.1157 20.8581C66.9529 21.2666 66.4732 21.3773 66.2973 20.7949C66.1213 20.2124 66.289 17.3464 63.9182 13.1394C61.5473 8.93242 60.5763 9.31612 59.551 7.68367C60.3145 11.9663 63.0523 15.1844 64.8679 18.2382C63.6254 18.8784 63.0337 13.6283 57.5437 14.5869C59.1242 15.2779 59.1022 16.33 61.5267 16.9812C63.9512 17.6324 65.1056 19.2518 65.6561 20.8554C66.2059 22.4589 67.7143 26.5765 67.0649 26.7072C66.4155 26.8378 66.6374 25.1964 65.8217 24.8767C65.006 24.5569 64.6782 24.1994 63.4687 22.6123C63.0997 22.1248 62.9849 21.8318 63.7945 22.2025C64.604 22.5731 64.3161 23.9277 65.7826 24.176C65.3386 22.8365 64.6576 21.5238 62.8269 20.5927C62.3795 20.3782 61.9926 20.1787 61.4848 19.6768C61.5597 21.0252 62.0558 21.739 62.5128 22.1619C62.9691 22.5848 63.5485 22.9802 63.6859 23.4354C63.4007 23.7393 62.8915 23.6603 62.2799 23.1363C62.2276 25.0005 64.683 26.5944 65.9715 27.6836C66.3859 28.0151 66.555 29.2301 66.7357 30.3998C66.7996 31.8796 66.8635 33.3594 66.9267 34.8392C66.8635 35.0352 66.7721 35.1479 66.4471 34.5903C66.0657 33.7073 65.6726 33.0424 65.5255 31.5812C65.3785 30.1199 64.4995 28.6484 63.3698 27.7194C62.9726 28.0178 62.9513 29.7562 63.2612 30.7216C63.5711 31.6871 63.9615 32.1608 64.4851 32.6216C64.2089 32.0116 64.0144 31.3095 64.224 30.1509C64.3154 31.7682 64.9497 33.1538 65.8025 34.5806C66.6553 36.0075 66.6099 36.189 66.4471 36.2303C66.1598 36.3458 65.8526 35.0132 64.2439 32.9551C62.5389 30.5655 60.8409 31.1053 60.4244 30.8474C60.5866 32.3891 61.5817 33.6723 62.6846 34.3056C65.9269 36.167 66.434 37.521 66.1323 40.4434C65.8306 43.3666 65.6176 42.463 65.3599 43.4732C65.0802 44.5803 64.4583 45.0155 64.3112 43.4539C64.1642 41.893 63.4804 40.6181 62.9238 40.1876C62.3678 39.7572 61.0773 39.3762 60.4677 38.3874C60.3069 40.1863 60.8264 41.2157 61.5927 41.9659C63.7175 43.4491 64.2329 44.845 63.7807 45.1256C63.3292 45.4061 62.5891 43.2325 61.8387 42.8192C61.0883 42.406 60.4553 42.6343 59.8238 42.4204C60.7756 43.13 61.6758 44.8911 62.8441 45.4625C64.0116 46.0339 63.3863 46.9203 63.3024 47.6905C63.0592 48.4139 62.8152 49.1373 62.5719 49.8606C62.1356 50.6225 61.6978 51.3748 61.0738 51.3597C60.8443 51.3618 60.9536 51.1005 61.0127 50.9781C61.3226 50.278 61.559 49.9033 61.2291 48.8863C60.8993 47.8699 59.742 46.7903 58.9146 45.6846C59.6479 47.8596 59.3661 49.73 60.0691 51.5715C60.2856 52.1484 59.7551 53.206 59.3641 53.5808C59.5613 53.8806 59.7132 54.2739 59.7283 54.6445C59.8066 54.5015 60.0822 53.9796 60.1605 53.8366C61.9954 53.8015 62.2806 54.5579 63.3945 54.7174C64.5085 54.877 65.3475 54.4644 66.5282 54.9471C65.6272 53.9542 64.0309 52.6167 62.6894 52.7116C61.348 52.8065 61.025 53.3023 60.777 53.0231C61.1803 52.321 62.2208 51.48 62.9066 50.9973C63.5931 50.5139 63.4193 50.2395 64.5951 50.4554C65.7716 50.6707 67.7095 50.6274 68.1074 50.4328C68.5059 50.2382 69.121 50.1804 69.9003 50.3592C69.1663 49.6853 68.3513 49.1049 67.0498 49.0795C66.5488 49.0795 65.8513 49.0575 65.3503 49.0575C66.1179 48.4696 65.9537 48.4104 66.7055 48.3747C67.4573 48.3389 68.6159 48.2791 69.6027 47.5247C70.5895 46.7704 71.7365 45.2645 71.9399 44.385C70.6672 45.0527 69.8494 45.204 68.2888 45.6365C66.7281 46.069 64.8404 47.784 64.193 47.6183C65.0039 45.5093 66.245 42.9822 66.6732 42.2286C67.1013 41.4749 67.3377 40.92 68.3465 40.9722C69.356 41.0245 70.6541 40.5603 71.4396 39.9153C72.2251 39.2703 72.7178 38.5552 73.1514 37.9136C71.9509 38.254 70.8575 38.3468 69.9889 38.6178C69.1196 38.888 68.9224 39.7365 67.9404 39.5358C70.4899 36.6738 72.4278 38.0498 72.9061 33.7369C71.9626 34.7195 70.2288 34.9692 69.2213 35.8865C68.2139 36.8038 67.9335 38.3668 67.5432 37.9446C67.2161 37.3381 67.7844 34.4575 68.4242 33.6716C70.0961 31.6575 72.7776 30.4094 72.3605 27.1425C71.6946 28.1918 69.9559 28.898 69.2179 30.0113C68.4805 31.1246 68.4468 31.4918 68.0606 32.2324C67.8359 32.6683 67.515 32.3066 67.849 31.5158C68.1836 30.725 69.3759 28.8946 70.1394 27.5839C70.8191 26.3118 70.905 25.0025 70.3758 23.6541C69.9463 24.7165 68.9725 25.565 68.6743 26.2568C68.3761 26.9485 68.1204 29.0926 67.7638 28.6814C67.4834 28.4483 67.8022 26.7326 67.5246 25.1669C67.2477 23.6011 67.2875 23.3267 67.302 22.2176C67.3164 21.1091 67.581 20.2007 68.0221 19.4443C68.4633 18.6873 69.3972 19.8315 69.5574 19.2779C69.668 18.8935 68.6145 17.3945 67.9857 18.1323C67.7809 18.4129 67.2772 20.4545 67.1137 20.8623L67.1157 20.8581ZM60.4038 15.3027C60.1647 15.2449 59.9537 15.6974 60.1612 15.9181C60.9687 16.5466 61.7933 16.3623 62.519 17.0362C62.0799 16.09 61.3556 15.5661 60.4038 15.3027ZM69.0729 30.9066C68.9066 31.2146 69.0571 31.6589 69.3409 31.4698C70.5084 30.8268 70.9922 29.8497 71.4314 28.6786C69.8157 29.9391 69.3381 30.4287 69.0722 30.9066H69.0729ZM62.642 32.2908C61.9191 31.9174 62.0723 32.7096 62.1988 32.9853C62.7637 33.8394 63.5162 33.8146 64.1381 34.4796C64.0233 33.4419 63.4605 32.8437 62.6427 32.2908H62.642ZM61.8682 53.3153C61.6387 53.3332 61.5453 53.6303 61.7961 53.7458C62.7032 54.0181 63.3863 53.8682 64.2288 53.9913C63.5533 53.3793 62.7925 53.27 61.8675 53.3153H61.8682ZM59.0576 15.2745C59.1778 15.5709 59.4713 15.6417 59.6829 15.6417C59.8939 15.6417 59.7736 15.2986 59.6218 15.2023C59.4699 15.1067 58.938 14.9781 59.0576 15.2745ZM68.2654 32.7206C68.5664 32.6896 68.7712 32.3101 68.8777 32.0137C68.9835 31.7173 68.6441 31.7262 68.4901 31.8954C68.3362 32.0646 67.9651 32.7515 68.2661 32.7206H68.2654ZM65.777 26.0079C65.8753 26.4108 65.8368 26.4404 66.0162 26.6934C65.2218 26.3331 64.7868 25.8731 64.2851 25.3594C63.7835 24.8457 63.4735 24.3912 63.4735 24.0281C64.0061 24.4985 65.696 25.2886 65.777 26.0079ZM68.0345 29.7259C68.4496 28.5982 68.8214 27.4966 69.1265 26.7484C69.4309 26.0003 69.7518 25.6936 70.2102 25.2769C70.0947 26.1192 69.9937 26.82 69.4824 27.6149C68.9719 28.4098 68.5231 28.9716 68.0352 29.7259H68.0345ZM68.7671 37.9054C68.3438 38.003 68.229 38.0965 67.9094 38.3083C68.6125 37.3181 69.2062 36.5033 69.7642 36.1203C70.3222 35.7372 71.6588 35.0909 71.9997 35.1163C71.542 36.2207 70.7455 36.5246 70.0941 36.9592C69.4419 37.3938 69.3196 38.0285 68.7678 37.9061L68.7671 37.9054ZM65.217 48.308C64.6672 48.2777 64.4927 48.3389 64.0267 48.4613C65.2424 47.6389 66.7439 46.8914 67.8304 46.4782C68.9169 46.0649 69.3794 46.1357 69.7841 46.2698C68.9815 47.3961 67.9376 47.2868 66.9865 47.5392C66.0354 47.7915 65.8451 48.2358 65.217 48.308ZM67.8139 40.5246C68.8846 39.9793 69.8267 39.0482 70.5394 38.9581C71.252 38.8681 71.6774 38.7622 72.1454 38.5738C71.6183 39.1582 70.8472 39.6183 70.1971 39.9105C69.1959 40.3602 68.5719 40.5294 67.8139 40.5246ZM63.7855 49.6255C64.8679 49.4714 65.8183 49.4873 66.667 49.5182C67.515 49.5491 68.0716 49.6262 68.2812 49.7884C67.871 50.0745 66.3296 50.0628 65.6032 49.9438C65.2376 49.884 64.3023 49.6894 63.7855 49.6262V49.6255ZM63.7127 43.3191C62.9313 42.3331 62.0119 41.7568 61.5185 41.0651C61.025 40.3733 60.8519 39.7634 60.9 39.4567C61.3412 40.0494 62.2648 40.6229 62.7334 41.1593C63.4041 41.928 63.4584 42.5105 63.7127 43.3191ZM60.9721 10.2417C61.8442 11.5647 63.4687 14.0533 64.314 15.7373C65.1593 17.4213 62.9403 12.4724 62.3362 11.5083C61.7329 10.5442 60.1001 8.91867 60.9714 10.2417H60.9721ZM68.5341 44.057C68.5355 44.473 68.3472 44.9915 68.2812 45.2356C68.4867 45.0994 68.6193 45.0568 68.9945 44.9867C69.4687 44.4324 68.9176 43.6396 69.5457 42.7876C68.0496 43.3466 66.7824 44.1257 66.4821 45.9212C66.8223 45.7279 67.1432 45.5003 67.4634 45.4708C67.8125 44.6504 68.2194 44.048 68.5341 44.057ZM58.3985 54.7484C58.6446 54.7573 58.5401 54.1818 58.2563 54.201C57.409 54.201 56.4833 54.5696 56.0847 54.9966C55.6862 55.4236 55.2567 55.9916 55.133 56.4627C55.1089 56.748 55.3432 56.8161 55.4463 56.7047C55.8641 56.1443 56.0263 55.83 56.4929 55.3748C56.9602 54.9196 57.644 54.7216 58.3979 54.7477L58.3985 54.7484ZM58.347 56.8147C58.2611 56.8388 58.3511 56.823 58.2934 56.8223C58.4123 56.9639 58.336 56.9749 58.325 57.0066C57.6241 57.2418 57.2901 57.1249 57.1052 56.8649C57.3698 56.4785 57.6859 56.2137 58.079 56.1278C58.2164 56.123 58.2625 56.1725 58.1841 56.2962C59.7922 55.3893 57.3279 55.1582 56.7987 57.1194C57.0564 57.7155 57.4612 57.851 57.9862 57.8056C58.5106 57.7595 58.7896 57.2569 58.347 56.814V56.8147ZM58.6576 25.5678C58.9751 25.3897 58.6865 25.1882 58.9696 25.0032C59.0741 24.9035 59.2844 24.9461 59.4046 25.4309C59.709 26.6597 57.7416 26.8103 57.8467 25.6317C57.879 25.268 58.4405 25.6895 58.6576 25.5678ZM59.338 27.3824C60.2554 26.875 60.6354 25.5313 60.0396 24.4538C59.8059 24.077 59.3215 24.0219 59.6582 24.8952C59.9949 25.7692 59.5118 26.5408 58.9669 26.7381C58.4219 26.9355 58.0213 26.6597 57.6131 26.2217C57.2049 25.7837 56.4778 25.8009 56.8771 26.6027C57.2763 27.4044 58.4205 27.8892 59.338 27.3818V27.3824ZM52.9099 39.1314C52.7051 38.2678 51.8839 38.3661 52.1835 39.2696C53.54 44.5012 52.3649 47.1706 50.2634 49.1703C46.5395 52.1855 42.5358 52.112 39.8014 47.2978C39.4125 46.5249 38.9541 47.1452 39.5754 48.6098C40.6123 50.8763 45.139 53.8146 50.4057 49.9363C53.318 47.2937 53.7991 42.6336 52.9099 39.1307V39.1314ZM54.1777 44.8416C54.5317 44.8842 54.5736 44.605 54.6203 44.3293C54.6251 44.2048 54.4437 44.363 54.2293 44.3602C54.0211 44.3582 53.8266 44.1849 53.7826 44.3293C53.6555 44.6291 53.8032 44.7921 54.1784 44.8416H54.1777ZM54.3489 43.993C54.8402 44.0522 54.8993 43.6637 54.9639 43.2813C54.9701 43.108 54.7186 43.3281 54.4203 43.3246C54.131 43.3212 53.8603 43.0805 53.7998 43.2813C53.6232 43.698 53.828 43.9243 54.3495 43.993H54.3489ZM54.4519 42.8564C55.1364 42.9389 55.2175 42.3984 55.3082 41.8662C55.3171 41.6255 54.9667 41.9308 54.5516 41.9267C54.1489 41.9225 53.7723 41.587 53.6878 41.8662C53.4424 42.4458 53.7269 42.7615 54.4519 42.8564ZM55.1288 40.5253C54.6746 40.3946 54.6437 40.0604 54.4719 39.7682C53.4624 37.151 52.1697 34.6439 50.5046 32.2825C49.7522 31.9422 50.7589 33.5134 51.6296 35.3185C50.873 34.375 49.614 32.9489 49.937 33.8009C50.0092 34.3496 52.7381 37.8146 53.8919 39.5646C54.1963 39.9415 53.6479 41.4763 54.3502 41.4522C55.1701 41.6454 55.9603 40.9131 55.1281 40.5253H55.1288ZM49.9253 51.3274C55.8387 48.8209 57.5395 41.0018 55.9741 36.7886C54.408 32.5755 53.8005 33.3312 54.7495 35.6231C57.1959 41.5306 55.1749 47.6368 49.9253 51.3274ZM57.1355 41.5478C57.6 40.2303 57.4694 37.325 57.1258 35.1803C56.7822 33.0355 55.838 31.1589 54.2526 30.285C52.6673 29.411 52.7937 29.882 53.9379 30.8131C56.9815 33.2913 57.0784 37.9528 57.1348 41.5478H57.1355ZM21.7369 61.666C20.9432 64.2515 19.6533 65.9163 18.2782 67.1499C16.897 68.3897 13.083 68.5307 12.5057 67.6155C12.2398 67.1671 11.7161 65.6158 12.5958 64.6648C12.672 64.1903 12.3497 64.1119 11.8708 63.7282C11.7086 63.5165 11.6467 63.3397 12.9208 62.8068C12.7758 62.1515 11.1987 62.5001 11.9175 61.2995C12.4542 60.2687 11.1059 60.2749 10.9561 59.5027C10.831 58.8563 13.4101 57.2197 13.6616 56.2337C13.7544 55.3556 13.4891 54.9499 13.8877 54.0876C15.3329 50.5118 18.1738 50.3654 20.2807 50.8295C24.2933 52.057 22.7183 58.7312 21.7362 61.6646L21.7369 61.666ZM25.8595 61.9748C26.0821 61.9156 26.2684 62.1646 26.0697 62.3571C25.2327 63.2703 24.5586 63.6739 23.8556 63.8183C24.2899 63.0172 24.9723 62.2381 25.8595 61.9748ZM6.03502 20.8574C6.19789 21.2659 6.67756 21.3766 6.85348 20.7942C7.0294 20.2117 6.86173 17.3457 9.23258 13.1387C11.6034 8.93173 12.5744 9.31543 13.5998 7.68298C12.8363 11.9656 10.0985 15.1837 8.28355 18.2375C9.52601 18.8777 10.1177 13.6276 15.6071 14.5862C14.0265 15.2773 14.0485 16.3293 11.624 16.9805C9.19959 17.6317 8.04509 19.2511 7.49533 20.8547C6.94488 22.4583 5.43647 26.5758 6.08587 26.7065C6.73528 26.8371 6.51331 25.1957 7.32902 24.876C8.14474 24.5562 8.47253 24.1987 9.68201 22.6116C10.051 22.1241 10.1658 21.8311 9.35628 22.2018C8.54675 22.5724 8.83469 23.9271 7.3682 24.1753C7.81213 22.8358 8.49315 21.5231 10.3239 20.592C10.7712 20.3775 11.1581 20.1781 11.666 19.6761C11.5904 21.0245 11.0949 21.7383 10.6379 22.1612C10.1816 22.5841 9.60229 22.9795 9.46485 23.4347C9.75004 23.7386 10.2593 23.6596 10.8709 23.1356C10.9231 24.9998 8.46772 26.5937 7.17921 27.6829C6.76483 28.0144 6.59578 29.2294 6.41436 30.3991C6.35045 31.8789 6.28654 33.3587 6.22331 34.8385C6.28654 35.0345 6.37794 35.1472 6.70298 34.5896C7.08438 33.7066 7.47746 33.0417 7.62452 31.5805C7.77158 30.1192 8.65052 28.6477 9.78028 27.7187C10.1775 28.0171 10.1988 29.7555 9.88886 30.7209C9.57893 31.6864 9.18791 32.1601 8.66495 32.6209C8.9412 32.0109 9.13568 31.3089 8.92609 30.1502C8.83469 31.7675 8.2004 33.1531 7.34758 34.5799C6.49476 36.0068 6.54012 36.1883 6.70298 36.2296C6.99023 36.3451 7.29741 35.0125 8.90616 32.9544C10.6118 30.5648 12.3092 31.1046 12.7256 30.8468C12.5635 32.3884 11.5684 33.6716 10.4654 34.3049C7.2232 36.1663 6.71604 37.5203 7.01772 40.4428C7.3194 43.3659 7.53244 42.4623 7.79014 43.4725C8.06983 44.5796 8.69175 45.0149 8.83881 43.4532C8.98587 41.8923 9.66964 40.6174 10.2263 40.187C10.7829 39.7565 12.0728 39.3755 12.6823 38.3867C12.8431 40.1856 12.3236 41.215 11.5574 41.9652C9.43256 43.4484 8.91715 44.8443 9.36933 45.1249C9.82082 45.4054 10.5603 43.2318 11.3114 42.8185C12.0618 42.4053 12.6947 42.6336 13.3262 42.4197C12.3745 43.1294 11.4742 44.8904 10.306 45.4618C9.13843 46.0332 9.76379 46.9196 9.84763 47.6898C10.0916 48.4132 10.3349 49.1366 10.5781 49.86C11.0145 50.6219 11.4522 51.3741 12.0769 51.359C12.3064 51.3611 12.1972 51.0998 12.1381 50.9774C11.8281 50.2774 11.5917 49.9026 11.9216 48.8856C12.2515 47.8692 13.4094 46.7897 14.2361 45.6839C13.5029 47.8589 13.7846 49.7293 13.0816 51.5708C12.8651 52.1477 13.3957 53.2053 13.7874 53.5801C13.5901 53.8799 13.4383 54.2732 13.4231 54.6439C13.3448 54.5008 13.0692 53.9789 12.9909 53.8359C11.1561 53.8008 10.8709 54.5572 9.75691 54.7167C8.64296 54.8763 7.80388 54.4637 6.62395 54.9464C7.52488 53.9535 9.12125 52.616 10.4627 52.7109C11.8041 52.8058 12.1271 53.3016 12.3752 53.0224C11.9718 52.3203 10.932 51.4793 10.2455 50.9966C9.55969 50.5132 9.73286 50.2388 8.55706 50.4548C7.38056 50.67 5.44265 50.6267 5.04407 50.4321C4.6455 50.2375 4.03045 50.1797 3.25116 50.3585C3.98509 49.6846 4.80012 49.1042 6.10168 49.0788C6.60265 49.0788 7.30016 49.0568 7.80113 49.0568C7.03353 48.4689 7.19777 48.4097 6.44597 48.374C5.69417 48.3382 4.53554 48.2784 3.54941 47.524C2.56258 46.7697 1.41564 45.2638 1.21223 44.3843C2.48493 45.052 3.3027 45.2033 4.86334 45.6358C6.42398 46.0683 8.31173 47.7833 8.95907 47.6176C8.14817 45.5086 6.90639 42.9815 6.47895 42.2279C6.05083 41.4742 5.81443 40.9193 4.80493 40.9715C3.79542 41.0238 2.4973 40.5596 1.71182 39.9146C0.92635 39.2696 0.432938 38.5545 0 37.9129C1.20054 38.2533 2.29388 38.3461 3.16251 38.6171C4.03114 38.8873 4.22905 39.7359 5.21106 39.5351C2.66154 36.6731 0.722938 38.0491 0.244644 33.7362C1.18817 34.7189 2.92199 34.9685 3.92943 35.8858C4.93687 36.8031 5.21725 38.3661 5.60758 37.9439C5.93469 37.3374 5.36637 34.4569 4.72658 33.6709C3.05462 31.6568 0.373151 30.4087 0.790284 27.1418C1.45618 28.1911 3.19481 28.8973 3.93218 30.0106C4.66955 31.1239 4.70391 31.4911 5.08943 32.2317C5.31414 32.6676 5.63507 32.3059 5.30109 31.5151C4.96642 30.7244 3.77412 28.8939 3.01064 27.5832C2.33099 26.3111 2.24509 25.0018 2.77424 23.6534C3.20374 24.7158 4.17751 25.5643 4.47576 26.2561C4.774 26.9479 5.02964 29.0919 5.3863 28.6807C5.66668 28.4476 5.3485 26.7319 5.62545 25.1662C5.90239 23.6004 5.86253 23.3261 5.8481 22.2169C5.83367 21.1084 5.56841 20.2001 5.12791 19.4437C4.68673 18.6866 3.75282 19.8308 3.5927 19.2772C3.48137 18.8929 4.53554 17.3938 5.16433 18.1316C5.36912 18.4122 5.87284 20.4538 6.03639 20.8616L6.03502 20.8574ZM12.7476 15.302C12.9861 15.2443 13.1977 15.6967 12.9902 15.9174C12.1827 16.546 11.3581 16.3617 10.6324 17.0355C11.0715 16.0894 11.7958 15.5654 12.7476 15.302ZM4.07855 30.9059C4.24486 31.214 4.09436 31.6582 3.81054 31.4691C2.64298 30.8261 2.15919 29.849 1.72007 28.6779C3.33569 29.9384 3.81329 30.428 4.07924 30.9059H4.07855ZM10.5094 32.2901C11.2323 31.9167 11.0791 32.7089 10.9526 32.9846C10.3878 33.8387 9.63528 33.8139 9.01336 34.4789C9.12812 33.4412 9.69094 32.843 10.5087 32.2901H10.5094ZM11.2832 53.3147C11.5127 53.3325 11.6062 53.6296 11.3553 53.7451C10.4482 54.0174 9.76516 53.8675 8.92265 53.9906C9.59748 53.3786 10.3589 53.2693 11.2832 53.3147ZM14.0939 15.2738C13.9736 15.5702 13.6802 15.641 13.4685 15.641C13.2575 15.641 13.3778 15.2979 13.5297 15.2016C13.6815 15.106 14.2134 14.9774 14.0939 15.2738ZM4.88602 32.7199C4.58502 32.6889 4.38023 32.3094 4.27441 32.013C4.16858 31.7166 4.50805 31.7256 4.66199 31.8947C4.81592 32.0639 5.18701 32.7508 4.88602 32.7199ZM7.37438 26.0072C7.27611 26.4101 7.31459 26.4397 7.13523 26.6927C7.93033 26.3324 8.36464 25.8724 8.8663 25.3587C9.36796 24.8451 9.67789 24.3905 9.67789 24.0275C9.1453 24.4978 7.45547 25.2879 7.37438 26.0072ZM5.11692 29.7252C4.70185 28.5975 4.33007 27.4959 4.02564 26.7477C3.72121 25.9996 3.40028 25.6929 2.94192 25.2762C3.05737 26.1186 3.15839 26.8193 3.66967 27.6142C4.18026 28.4091 4.629 28.9709 5.11692 29.7252ZM4.38436 37.9047C4.80768 38.0023 4.92244 38.0958 5.24199 38.3076C4.53898 37.3174 3.94524 36.5026 3.38723 36.1196C2.82922 35.7366 1.49192 35.0902 1.15175 35.1156C1.60943 36.22 2.4059 36.5239 3.05737 36.9585C3.70884 37.3931 3.83185 38.0278 4.38367 37.9054L4.38436 37.9047ZM7.93445 48.3073C8.48421 48.277 8.65876 48.3382 9.12469 48.4606C7.90902 47.6382 6.4068 46.8907 5.32102 46.4775C4.23455 46.0642 3.77206 46.135 3.3673 46.2691C4.16926 47.3955 5.21381 47.2861 6.1649 47.5385C7.11599 47.7909 7.30635 48.2351 7.93445 48.3073ZM5.33751 40.5239C4.26685 39.9786 3.32469 39.0475 2.61206 38.9575C1.89943 38.8674 1.47405 38.7615 1.00607 38.5731C1.53315 39.1576 2.30488 39.6176 2.95429 39.9098C3.95554 40.3595 4.57952 40.5287 5.33751 40.5239ZM9.3659 49.6248C8.28355 49.4708 7.33315 49.4866 6.48445 49.5175C5.63644 49.5485 5.07981 49.6255 4.87021 49.7878C5.28047 50.0738 6.82187 50.0621 7.54824 49.9432C7.91383 49.8833 8.84843 49.6887 9.3659 49.6255V49.6248ZM9.43874 43.3185C10.2208 42.3324 11.1396 41.7561 11.633 41.0644C12.1264 40.3726 12.2996 39.7627 12.2508 39.456C11.8096 40.0487 10.886 40.6222 10.4173 41.1586C9.74661 41.9274 9.69232 42.5098 9.43805 43.3185H9.43874ZM12.1793 10.241C11.3072 11.564 9.6827 14.0526 8.83744 15.7366C7.99218 17.4206 10.2112 12.4717 10.8152 11.5076C11.4186 10.5436 13.0521 8.91798 12.18 10.241H12.1793ZM4.61732 44.0563C4.61595 44.4723 4.80424 44.9908 4.87021 45.2349C4.66405 45.0987 4.53211 45.0561 4.15689 44.986C3.68272 44.4317 4.23386 43.6389 3.60576 42.7869C5.1018 43.346 6.369 44.1251 6.66931 45.9205C6.32914 45.7273 6.00822 45.4996 5.68798 45.4701C5.33888 44.6497 4.93206 44.0474 4.61663 44.0563H4.61732ZM14.7529 54.7477C14.5069 54.7566 14.6113 54.1811 14.8951 54.2003C15.7425 54.2003 16.6681 54.5689 17.0667 54.9959C17.4653 55.4229 17.8948 55.9909 18.0185 56.462C18.0425 56.7473 17.8082 56.8154 17.7051 56.704C17.2873 56.1436 17.1251 55.8293 16.6585 55.3741C16.1912 54.9189 15.5067 54.7209 14.7536 54.747L14.7529 54.7477ZM14.8051 56.814C14.891 56.8381 14.8003 56.8223 14.8587 56.8216C14.7398 56.9633 14.8161 56.9743 14.8264 57.0059C15.528 57.2411 15.8613 57.1242 16.0462 56.8642C15.7816 56.4778 15.4655 56.213 15.0717 56.1271C14.935 56.1223 14.8883 56.1718 14.9666 56.2956C13.3585 55.3886 15.8229 55.1575 16.352 57.1187C16.0943 57.7148 15.6895 57.8503 15.1645 57.8049C14.6402 57.7589 14.3612 57.2562 14.8037 56.8134L14.8051 56.814ZM14.4945 25.5671C14.177 25.389 14.4656 25.1875 14.1818 25.0025C14.0774 24.9028 13.8671 24.9454 13.7468 25.4302C13.4424 26.659 15.4098 26.8096 15.3054 25.631C15.2731 25.2673 14.7117 25.6888 14.4945 25.5671ZM13.8142 27.3818C12.8967 26.8743 12.5167 25.5306 13.1125 24.4531C13.3462 24.0763 13.8307 24.0213 13.4939 24.8946C13.1572 25.7686 13.6403 26.5401 14.1853 26.7374C14.7302 26.9348 15.1308 26.659 15.539 26.221C15.9472 25.783 16.6743 25.8002 16.275 26.602C15.8758 27.4038 14.7316 27.8885 13.8142 27.3811V27.3818ZM20.2416 39.1307C20.4464 38.2671 21.2676 38.3654 20.968 39.269C19.6114 44.5005 20.7865 47.1699 22.888 49.1696C26.612 52.1849 30.6156 52.1113 33.35 47.2971C33.7389 46.5242 34.1973 47.1445 33.5761 48.6091C32.5391 50.8756 28.0125 53.8139 22.7457 49.9356C19.8334 47.293 19.3523 42.6329 20.2416 39.1301V39.1307ZM18.9737 44.8409C18.6198 44.8835 18.5779 44.6043 18.5311 44.3286C18.5263 44.2041 18.7077 44.3623 18.9221 44.3595C19.1304 44.3575 19.3248 44.1842 19.3688 44.3286C19.4953 44.6284 19.3482 44.7914 18.973 44.8409H18.9737ZM18.8026 43.9923C18.3112 44.0515 18.2528 43.663 18.1875 43.2806C18.1813 43.1074 18.4329 43.3274 18.7311 43.324C19.0204 43.3205 19.2912 43.0798 19.3523 43.2806C19.5289 43.6973 19.3242 43.9236 18.8026 43.9923ZM18.6995 42.8557C18.0157 42.9382 17.9339 42.3977 17.8439 41.8655C17.835 41.6248 18.1855 41.9301 18.6005 41.926C19.0032 41.9219 19.3805 41.5863 19.4643 41.8655C19.7097 42.4452 19.4252 42.7608 18.6995 42.8557ZM18.0226 40.5246C18.4768 40.3939 18.5078 40.0597 18.6796 39.7675C19.6891 37.1503 20.9817 34.6432 22.6468 32.2819C23.3993 31.9415 22.3925 33.5127 21.5218 35.3178C22.2784 34.3743 23.5374 32.9482 23.2144 33.8002C23.1423 34.3489 20.4134 37.8139 19.2596 39.564C18.9551 39.9408 19.5035 41.4756 18.8012 41.4515C17.9814 41.6447 17.1911 40.9124 18.0233 40.5246H18.0226ZM23.2261 51.3267C17.3127 48.8202 15.6119 41.0011 17.1773 36.788C18.7435 32.5748 19.351 33.3305 18.4019 35.6224C15.9548 41.5299 17.9766 47.6361 23.2261 51.3267ZM16.016 41.5471C15.5514 40.2296 15.682 37.3243 16.0249 35.1796C16.3685 33.0348 17.3127 31.1583 18.8981 30.2843C20.4835 29.4103 20.357 29.8813 19.2128 30.8124C16.1692 33.2906 16.0723 37.9521 16.016 41.5471ZM85.2235 18.1378C85.06 18.1378 84.8999 18.1846 84.7418 18.2781C84.5844 18.3716 84.4442 18.5332 84.3219 18.7643C84.1996 18.9946 84.0999 19.3048 84.0244 19.6926C83.9488 20.0811 83.9103 20.57 83.9103 21.16C83.9103 21.75 83.9481 22.2389 84.0244 22.6274C84.0999 23.0159 84.2023 23.3254 84.3309 23.5557C84.4594 23.7861 84.6078 23.9484 84.7775 24.0419C84.9466 24.1354 85.1246 24.1822 85.3115 24.1822C85.4634 24.1822 85.618 24.1409 85.7754 24.0598C85.9327 23.9779 86.077 23.8638 86.2083 23.718C86.3396 23.5722 86.4502 23.3996 86.5409 23.2009C86.6316 23.0022 86.688 22.789 86.7113 22.5614H86.8426C86.8192 22.8241 86.7608 23.0648 86.6674 23.2841C86.5739 23.5035 86.4557 23.6933 86.3128 23.8535C86.1698 24.0137 86.0049 24.1382 85.818 24.2255C85.6311 24.3128 85.4331 24.3568 85.2228 24.3568C84.9487 24.3568 84.6827 24.2908 84.4264 24.1595C84.1701 24.0281 83.9405 23.8294 83.7392 23.564C83.5378 23.2986 83.377 22.9657 83.2574 22.5655C83.1379 22.1653 83.0781 21.697 83.0781 21.16C83.0781 20.623 83.1379 20.154 83.2574 19.7545C83.377 19.3543 83.5351 19.0214 83.7302 18.756C83.9254 18.4906 84.146 18.2919 84.3913 18.1605C84.6367 18.0292 84.8841 17.9632 85.1356 17.9632C85.2758 17.9632 85.4022 17.9866 85.5163 18.0333C85.6304 18.0801 85.7279 18.133 85.8097 18.1908C85.9032 18.2547 85.985 18.3283 86.055 18.4094C86.1018 18.3221 86.1643 18.2389 86.2433 18.1598C86.3217 18.0814 86.4055 18.0299 86.4928 18.0065H86.6241C86.6124 18.0938 86.6034 18.1818 86.5979 18.2692C86.5924 18.351 86.5876 18.437 86.5849 18.5277C86.5821 18.6185 86.5808 18.7072 86.5808 18.7945C86.5808 18.8942 86.5821 18.9919 86.5849 19.0881C86.5876 19.1844 86.5924 19.2738 86.5979 19.3556C86.6041 19.4492 86.6124 19.5392 86.6241 19.6273H86.4928C86.3588 19.1425 86.1794 18.7732 85.9547 18.5195C85.73 18.2657 85.4867 18.1385 85.2235 18.1385V18.1378ZM89.6443 22.0794C89.1365 22.0794 88.7619 22.1915 88.5194 22.4163C88.2775 22.6412 88.1558 22.952 88.1558 23.3494C88.1558 23.6121 88.2197 23.8163 88.3482 23.9628C88.4768 24.1086 88.6169 24.1822 88.7681 24.1822C88.9083 24.1822 89.032 24.1409 89.1399 24.0598C89.2478 23.9779 89.3399 23.8872 89.4155 23.7882C89.5028 23.6774 89.579 23.5461 89.6429 23.3941V22.0807L89.6443 22.0794ZM88.988 20.1959C88.8128 20.1959 88.6671 20.2558 88.5503 20.3754C88.4335 20.4951 88.375 20.6539 88.375 20.8526C88.375 20.8994 88.3764 20.94 88.3792 20.975C88.3819 21.0101 88.3867 21.0424 88.3922 21.0713C88.3977 21.1002 88.4067 21.1297 88.4183 21.1586L87.7181 21.334C87.7064 21.3161 87.6975 21.2927 87.692 21.2638C87.6858 21.235 87.6817 21.2026 87.6789 21.1676C87.6762 21.1325 87.6748 21.0857 87.6748 21.0273C87.6748 20.9049 87.7037 20.7866 87.7621 20.6725C87.8205 20.5583 87.9064 20.4565 88.0204 20.3658C88.1345 20.275 88.2713 20.2021 88.4321 20.1471C88.5922 20.0914 88.7777 20.0639 88.988 20.0639C89.4079 20.0639 89.7391 20.1836 89.9817 20.4229C90.2236 20.6622 90.3453 20.9805 90.3453 21.3773V24.0048L90.8703 24.1361V24.2241H89.645V23.6988C89.5811 23.8212 89.4993 23.9326 89.3997 24.0316C89.3179 24.1134 89.2141 24.1877 89.0891 24.2551C88.9633 24.3224 88.8135 24.3561 88.6382 24.3561C88.2184 24.3561 87.9016 24.2564 87.6885 24.0584C87.4755 23.8597 87.369 23.5942 87.369 23.2614C87.369 23.0978 87.4143 22.9341 87.5044 22.7711C87.5951 22.6075 87.7318 22.4617 87.916 22.3331C88.1002 22.2045 88.3345 22.1007 88.6211 22.0223C88.9069 21.9432 89.2485 21.904 89.645 21.904V21.3787C89.645 20.9406 89.579 20.634 89.4478 20.4593C89.3165 20.284 89.1633 20.1966 88.988 20.1966V20.1959ZM93.6273 20.2833V20.1959H95.3344V20.2833L94.8093 20.4146V24.0054L95.3344 24.1368V24.2248H93.6273V24.1368L94.1091 24.0054V22.21H92.6213V24.0054L93.1023 24.1368V24.2248H91.3953V24.1368L91.9203 24.0054V20.4146L91.3953 20.2833V20.1959H93.1023V20.2833L92.6213 20.4146V22.0347H94.1091V20.4146L93.6273 20.2833ZM97.5575 22.2891L97.1726 22.9547V24.0054L97.6537 24.1368V24.2248H95.9467V24.1368L96.4717 24.0054V20.4146L95.9467 20.2833V20.1959H97.7409V20.2833L97.1719 20.4146V22.648L97.9595 21.2466C98.0935 21.0073 98.2076 20.8134 98.301 20.6642C98.3945 20.515 98.4776 20.4002 98.5505 20.3183C98.6233 20.2365 98.692 20.1808 98.7559 20.1519C98.8198 20.123 98.8899 20.1079 98.9662 20.1079C98.9951 20.1079 99.0246 20.1107 99.0535 20.1169C99.0824 20.1224 99.1064 20.1285 99.1236 20.134C99.147 20.1402 99.1669 20.1457 99.1848 20.1519L99.316 20.7653C99.281 20.7591 99.2459 20.7536 99.2109 20.7474C99.182 20.7412 99.1483 20.7357 99.1098 20.7295C99.0721 20.724 99.0384 20.7206 99.0088 20.7206C98.7697 20.7206 98.589 20.7646 98.4659 20.8519C98.3436 20.9393 98.2323 21.0706 98.1333 21.246L97.9148 21.6317L99.3593 24.0054L99.8843 24.1368V24.2248H98.1162V24.1368L98.5979 24.0054L97.5561 22.2891H97.5575ZM103.256 20.1959C103.244 20.2544 103.235 20.3156 103.23 20.3802C103.223 20.4387 103.219 20.5074 103.217 20.5858C103.214 20.6649 103.212 20.7536 103.212 20.8533C103.212 20.9173 103.214 20.9895 103.217 21.0679C103.219 21.1469 103.224 21.2185 103.23 21.2824C103.235 21.358 103.244 21.4344 103.256 21.51H103.168C103.017 21.3759 102.891 21.2136 102.792 21.0238C102.693 20.8341 102.643 20.6168 102.643 20.3713H101.943V24.0061L102.468 24.1375V24.2255H100.717V24.1375L101.242 24.0061V20.3713H100.541C100.541 20.6168 100.492 20.8341 100.392 21.0238C100.293 21.2136 100.167 21.3759 100.016 21.51H99.9276C99.9338 21.4344 99.9393 21.358 99.9455 21.2824C99.9517 21.2185 99.9572 21.1469 99.9634 21.0679C99.9695 20.9895 99.9723 20.9173 99.9723 20.8533C99.9723 20.7543 99.9695 20.6649 99.9634 20.5858C99.9572 20.5074 99.9517 20.4387 99.9455 20.3802C99.94 20.3163 99.9338 20.2544 99.9276 20.1959H103.254H103.256ZM106.582 21.51V21.86H103.781V21.51H106.582ZM109.033 24.1375V24.2255H107.239V24.1375L107.764 24.0061V18.3132L107.239 18.1818V18.0938H111.572V18.1818L111.047 18.3132V24.0061L111.572 24.1375V24.2255H109.777V24.1375L110.302 24.0061V18.2692H108.508V24.0061L109.033 24.1375ZM113.147 22.2107C113.147 22.5841 113.175 22.897 113.231 23.148C113.286 23.399 113.359 23.6018 113.449 23.7565C113.54 23.9112 113.641 24.0206 113.756 24.0852C113.87 24.1492 113.988 24.1815 114.11 24.1815C114.262 24.1815 114.405 24.1519 114.539 24.0935C114.673 24.035 114.793 23.9566 114.898 23.8569C115.003 23.7579 115.089 23.6383 115.156 23.498C115.223 23.3577 115.268 23.2057 115.292 23.0428H115.423C115.4 23.2298 115.349 23.4031 115.27 23.564C115.191 23.7249 115.091 23.8631 114.968 23.98C114.845 24.0969 114.704 24.189 114.543 24.2557C114.383 24.3231 114.209 24.3568 114.022 24.3568C113.8 24.3568 113.591 24.3087 113.392 24.2124C113.193 24.1162 113.017 23.9759 112.862 23.7923C112.708 23.608 112.585 23.3838 112.495 23.1177C112.404 22.8516 112.359 22.5497 112.359 22.2114C112.359 21.8607 112.403 21.5513 112.49 21.2831C112.578 21.0142 112.693 20.7914 112.836 20.6133C112.979 20.4352 113.145 20.2991 113.335 20.2062C113.525 20.1127 113.725 20.066 113.934 20.066C114.144 20.066 114.344 20.1127 114.533 20.2062C114.723 20.2998 114.889 20.4352 115.032 20.6133C115.175 20.7914 115.291 21.0149 115.378 21.2831C115.465 21.552 115.509 21.8614 115.509 22.2114H113.146L113.147 22.2107ZM113.935 20.1959C113.848 20.1959 113.76 20.2234 113.672 20.2791C113.584 20.3348 113.503 20.4325 113.427 20.5728C113.351 20.713 113.288 20.9014 113.239 21.1373C113.189 21.3739 113.158 21.673 113.147 22.0354H114.722C114.711 21.673 114.68 21.3739 114.63 21.1373C114.581 20.9008 114.518 20.7123 114.442 20.5728C114.366 20.4325 114.285 20.3348 114.197 20.2791C114.109 20.2234 114.021 20.1959 113.934 20.1959H113.935ZM119.362 20.1959C119.35 20.2544 119.341 20.3156 119.336 20.3802C119.329 20.4387 119.325 20.5074 119.323 20.5858C119.32 20.6649 119.318 20.7536 119.318 20.8533C119.318 20.9173 119.32 20.9895 119.323 21.0679C119.325 21.1469 119.33 21.2185 119.336 21.2824C119.341 21.358 119.35 21.4344 119.362 21.51H119.274C119.123 21.3759 118.998 21.2136 118.898 21.0238C118.799 20.8341 118.749 20.6168 118.749 20.3713H118.048V24.0061L118.574 24.1375V24.2255H116.823V24.1375L117.348 24.0061V20.3713H116.648C116.648 20.6168 116.598 20.8341 116.499 21.0238C116.4 21.2136 116.274 21.3759 116.122 21.51H116.035C116.04 21.4344 116.047 21.358 116.052 21.2824C116.058 21.2185 116.064 21.1469 116.07 21.0679C116.076 20.9895 116.079 20.9173 116.079 20.8533C116.079 20.7543 116.076 20.6649 116.07 20.5858C116.065 20.5074 116.058 20.4387 116.052 20.3802C116.047 20.3163 116.04 20.2544 116.035 20.1959H119.361H119.362ZM120.718 22.2107C120.718 22.5841 120.746 22.897 120.801 23.148C120.857 23.399 120.93 23.6018 121.02 23.7565C121.111 23.9112 121.212 24.0206 121.326 24.0852C121.441 24.1492 121.559 24.1815 121.681 24.1815C121.833 24.1815 121.976 24.1519 122.11 24.0935C122.244 24.035 122.363 23.9566 122.469 23.8569C122.574 23.7579 122.66 23.6383 122.727 23.498C122.794 23.3577 122.839 23.2057 122.863 23.0428H122.994C122.971 23.2298 122.92 23.4031 122.841 23.564C122.762 23.7249 122.662 23.8631 122.539 23.98C122.416 24.0969 122.275 24.189 122.114 24.2557C121.953 24.3231 121.78 24.3568 121.593 24.3568C121.371 24.3568 121.162 24.3087 120.963 24.2124C120.764 24.1162 120.588 23.9759 120.434 23.7923C120.279 23.608 120.156 23.3838 120.066 23.1177C119.975 22.8516 119.931 22.5497 119.931 22.2114C119.931 21.8607 119.975 21.5513 120.062 21.2831C120.149 21.0142 120.265 20.7914 120.408 20.6133C120.551 20.4352 120.717 20.2991 120.907 20.2062C121.096 20.1127 121.296 20.066 121.506 20.066C121.716 20.066 121.916 20.1127 122.105 20.2062C122.295 20.2998 122.461 20.4352 122.604 20.6133C122.747 20.7914 122.862 21.0149 122.95 21.2831C123.037 21.552 123.081 21.8614 123.081 22.2114H120.718L120.718 22.2107ZM121.506 20.1959C121.419 20.1959 121.331 20.2234 121.243 20.2791C121.155 20.3348 121.074 20.4325 120.998 20.5728C120.922 20.713 120.859 20.9014 120.81 21.1373C120.76 21.3739 120.729 21.673 120.718 22.0354H122.293C122.282 21.673 122.251 21.3739 122.201 21.1373C122.152 20.9008 122.089 20.7123 122.013 20.5728C121.937 20.4325 121.856 20.3348 121.768 20.2791C121.68 20.2234 121.592 20.1959 121.505 20.1959H121.506ZM124.176 20.4153L123.651 20.2839V20.1966H124.876V20.722C124.934 20.6051 125.013 20.4971 125.112 20.3981C125.194 20.3163 125.299 20.2406 125.428 20.1705C125.556 20.1004 125.708 20.0653 125.883 20.0653C126.07 20.0653 126.254 20.1134 126.439 20.2097C126.623 20.306 126.786 20.4462 126.929 20.6298C127.071 20.8134 127.188 21.0383 127.278 21.3044C127.369 21.5698 127.414 21.8724 127.414 22.2107C127.414 22.549 127.369 22.8516 127.278 23.117C127.188 23.3824 127.067 23.6073 126.915 23.7916C126.763 23.9759 126.591 24.1155 126.399 24.2117C126.206 24.308 126.005 24.3561 125.795 24.3561C125.626 24.3561 125.484 24.3341 125.37 24.2901C125.256 24.2461 125.161 24.1952 125.085 24.1368C124.998 24.0728 124.928 23.9999 124.875 23.9181V26.1076L125.4 26.2389V26.3262H123.65V26.2389L124.175 26.1076V20.4146L124.176 20.4153ZM125.664 24.1815C125.786 24.1815 125.905 24.1492 126.019 24.0852C126.133 24.0213 126.234 23.9112 126.325 23.7565C126.415 23.6018 126.489 23.399 126.544 23.148C126.599 22.897 126.627 22.5848 126.627 22.2107C126.627 21.8373 126.599 21.5244 126.544 21.2735C126.488 21.0225 126.418 20.821 126.333 20.669C126.249 20.5171 126.155 20.4077 126.053 20.3403C125.951 20.2729 125.85 20.2393 125.751 20.2393C125.606 20.2393 125.48 20.2798 125.375 20.3617C125.27 20.4435 125.179 20.5336 125.103 20.6333C125.016 20.7502 124.94 20.8815 124.876 21.0273V23.6548C124.929 23.7538 124.993 23.8418 125.068 23.9174C125.132 23.9814 125.214 24.0412 125.314 24.0969C125.413 24.1526 125.529 24.1801 125.664 24.1801V24.1815ZM129.866 20.3273C130.081 20.3273 130.29 20.3754 130.492 20.4717C130.693 20.5679 130.871 20.7041 131.026 20.8788C131.18 21.0541 131.303 21.2659 131.393 21.5141C131.484 21.7624 131.529 22.0381 131.529 22.3421C131.529 22.6515 131.483 22.9307 131.393 23.1782C131.303 23.4265 131.18 23.6382 131.026 23.8136C130.871 23.9889 130.693 24.123 130.492 24.2166C130.29 24.3101 130.081 24.3568 129.866 24.3568C129.644 24.3568 129.434 24.3087 129.235 24.2124C129.037 24.1162 128.86 23.9773 128.706 23.7964C128.551 23.6156 128.429 23.3948 128.338 23.1349C128.247 22.875 128.203 22.5813 128.203 22.2547V21.51C128.203 21.0018 128.27 20.5872 128.404 20.2661C128.538 19.9449 128.708 19.685 128.912 19.4863C129.116 19.2876 129.341 19.1328 129.586 19.0221C129.831 18.9114 130.067 18.8076 130.295 18.7113C130.523 18.6151 130.725 18.5098 130.903 18.3957C131.081 18.2815 131.202 18.1227 131.267 17.9185H131.398C131.398 18.1928 131.358 18.4205 131.276 18.602C131.194 18.7828 131.086 18.9348 130.952 19.0572C130.818 19.1796 130.666 19.2821 130.497 19.3639C130.328 19.4457 130.154 19.5227 129.976 19.5963C129.798 19.6692 129.624 19.7483 129.455 19.8329C129.286 19.9174 129.134 20.0226 129 20.1485C128.866 20.2736 128.759 20.4318 128.677 20.6216C128.595 20.8114 128.554 21.0493 128.554 21.3353C128.642 21.1545 128.747 20.9881 128.87 20.8361C128.975 20.7075 129.109 20.5906 129.273 20.4861C129.436 20.3809 129.635 20.3286 129.868 20.3286L129.866 20.3273ZM128.99 22.3421C128.99 22.6927 129.018 22.9871 129.073 23.227C129.129 23.4663 129.198 23.6603 129.284 23.8095C129.368 23.9587 129.462 24.0646 129.564 24.1292C129.666 24.1932 129.767 24.2255 129.866 24.2255C129.965 24.2255 130.066 24.1932 130.167 24.1292C130.27 24.0653 130.363 23.9587 130.448 23.8095C130.532 23.6603 130.602 23.4663 130.658 23.227C130.714 22.9877 130.741 22.6927 130.741 22.3421C130.741 22.0037 130.714 21.717 130.658 21.4839C130.602 21.2501 130.533 21.0603 130.448 20.9145C130.363 20.7687 130.27 20.6635 130.167 20.5989C130.065 20.5349 129.965 20.5026 129.866 20.5026C129.767 20.5026 129.666 20.5349 129.564 20.5989C129.462 20.6628 129.368 20.768 129.284 20.9145C129.199 21.0603 129.129 21.2501 129.073 21.4839C129.018 21.7177 128.99 22.0037 128.99 22.3421ZM133.542 24.9695C133.449 25.2439 133.358 25.4729 133.271 25.6572C133.183 25.8414 133.091 25.99 132.995 26.1041C132.899 26.2183 132.799 26.298 132.698 26.3448C132.595 26.3916 132.483 26.4149 132.361 26.4149C132.326 26.4149 132.294 26.4136 132.265 26.4108C132.236 26.4081 132.206 26.4032 132.177 26.3977C132.149 26.3916 132.122 26.3833 132.098 26.3716L131.967 25.7149C131.99 25.7266 132.017 25.7355 132.046 25.741C132.075 25.7465 132.105 25.7514 132.133 25.7541C132.162 25.7569 132.195 25.7589 132.23 25.7589C132.58 25.7589 132.835 25.6929 132.996 25.5616C133.156 25.4302 133.28 25.2329 133.368 24.9702L133.613 24.2255L132.098 20.4153L131.573 20.2839V20.1966H133.324V20.2839L132.843 20.4153L133.955 23.2092L134.856 20.5026L134.287 20.2833V20.1959H135.6V20.2833L135.031 20.5026L133.544 24.9695H133.542ZM136.212 20.4146L135.687 20.2833V20.1959H136.912V20.7213C136.971 20.6044 137.05 20.4964 137.149 20.3974C137.23 20.3156 137.336 20.2399 137.464 20.1698C137.593 20.0997 137.744 20.0646 137.919 20.0646C138.106 20.0646 138.291 20.1127 138.475 20.209C138.658 20.3053 138.822 20.4455 138.965 20.6291C139.108 20.8127 139.225 21.0376 139.315 21.3037C139.405 21.5691 139.451 21.8717 139.451 22.21C139.451 22.5483 139.405 22.8509 139.315 23.1163C139.224 23.3818 139.103 23.6066 138.951 23.7909C138.799 23.9752 138.627 24.1148 138.435 24.2111C138.243 24.3073 138.041 24.3555 137.831 24.3555C137.662 24.3555 137.52 24.3335 137.406 24.2894C137.292 24.2454 137.197 24.1945 137.122 24.1361C137.035 24.0721 136.964 23.9993 136.912 23.9174V26.1069L137.437 26.2382V26.3255H135.686V26.2382L136.211 26.1069V20.4139L136.212 20.4146ZM137.7 24.1808C137.822 24.1808 137.94 24.1485 138.054 24.0845C138.168 24.0206 138.27 23.9106 138.361 23.7558C138.452 23.6011 138.524 23.3983 138.58 23.1473C138.636 22.8963 138.663 22.5841 138.663 22.21C138.663 21.8366 138.636 21.5238 138.58 21.2728C138.524 21.0218 138.454 20.8203 138.37 20.6683C138.285 20.5164 138.192 20.407 138.089 20.3396C137.987 20.2723 137.887 20.2386 137.788 20.2386C137.642 20.2386 137.516 20.2791 137.411 20.361C137.306 20.4428 137.215 20.5329 137.14 20.6326C137.052 20.7495 136.976 20.8808 136.912 21.0266V23.6541C136.965 23.7531 137.029 23.8411 137.105 23.9167C137.169 23.9807 137.25 24.0405 137.35 24.0962C137.449 24.1519 137.566 24.1794 137.7 24.1794V24.1808ZM141.376 20.3706V24.0054L141.901 24.1368V24.2248H140.15V24.1368L140.675 24.0054V20.4146L140.15 20.2833V20.1959H143.127C143.115 20.2544 143.106 20.3156 143.101 20.3802C143.095 20.4387 143.09 20.5074 143.087 20.5858C143.085 20.6649 143.083 20.7536 143.083 20.8533C143.083 20.9173 143.084 20.9895 143.087 21.0679C143.09 21.1469 143.095 21.2185 143.101 21.2824C143.107 21.358 143.115 21.4344 143.127 21.51H143.039C142.887 21.3759 142.762 21.2136 142.663 21.0238C142.563 20.8341 142.514 20.6168 142.514 20.3713H141.376L141.376 20.3706ZM145.359 20.2393C145.249 20.2393 145.139 20.2729 145.031 20.3403C144.923 20.4077 144.825 20.5171 144.737 20.669C144.65 20.821 144.579 21.0225 144.523 21.2735C144.467 21.5244 144.44 21.8366 144.44 22.2107C144.44 22.5841 144.467 22.897 144.523 23.148C144.579 23.399 144.653 23.6018 144.746 23.7565C144.84 23.9112 144.946 24.0206 145.066 24.0852C145.185 24.1492 145.313 24.1815 145.447 24.1815C145.598 24.1815 145.741 24.1519 145.875 24.0935C146.009 24.035 146.129 23.9566 146.234 23.8569C146.339 23.7579 146.425 23.6383 146.493 23.498C146.56 23.3577 146.605 23.2057 146.628 23.0428H146.759C146.736 23.2298 146.685 23.4031 146.606 23.564C146.527 23.7249 146.427 23.8631 146.304 23.98C146.182 24.0969 146.04 24.189 145.88 24.2557C145.719 24.3231 145.546 24.3568 145.359 24.3568C145.131 24.3568 144.914 24.3087 144.706 24.2124C144.5 24.1162 144.317 23.9759 144.159 23.7923C144.002 23.608 143.878 23.3838 143.788 23.1177C143.697 22.8516 143.652 22.5497 143.652 22.2114C143.652 21.8731 143.697 21.5705 143.788 21.3051C143.878 21.0397 143.999 20.8148 144.151 20.6305C144.303 20.4462 144.475 20.3066 144.667 20.2104C144.86 20.1141 145.061 20.066 145.271 20.066C145.412 20.066 145.535 20.0893 145.643 20.1361C145.751 20.1829 145.843 20.2324 145.919 20.2853C146.006 20.3493 146.082 20.4229 146.146 20.5047C146.17 20.4174 146.218 20.3355 146.29 20.2592C146.363 20.1836 146.432 20.134 146.496 20.11H146.627C146.616 20.1856 146.607 20.2647 146.601 20.3465C146.595 20.4167 146.591 20.4923 146.588 20.5741C146.585 20.656 146.584 20.7344 146.584 20.8107C146.584 20.898 146.585 20.9874 146.588 21.0782C146.591 21.1683 146.596 21.2487 146.601 21.3188C146.607 21.4007 146.616 21.4791 146.627 21.5554H146.496C146.385 21.1352 146.223 20.8107 146.01 20.5831C145.797 20.3555 145.58 20.2413 145.358 20.2413L145.359 20.2393ZM148.94 22.2891L148.555 22.9547V24.0054L149.036 24.1368V24.2248H147.329V24.1368L147.854 24.0054V20.4146L147.329 20.2833V20.1959H149.123V20.2833L148.554 20.4146V22.648L149.342 21.2466C149.476 21.0073 149.59 20.8134 149.683 20.6642C149.777 20.515 149.86 20.4002 149.933 20.3183C150.006 20.2365 150.074 20.1808 150.138 20.1519C150.202 20.123 150.272 20.1079 150.348 20.1079C150.377 20.1079 150.407 20.1107 150.436 20.1169C150.465 20.1224 150.489 20.1285 150.506 20.134C150.529 20.1402 150.55 20.1457 150.567 20.1519L150.698 20.7653C150.663 20.7591 150.628 20.7536 150.593 20.7474C150.564 20.7412 150.531 20.7357 150.492 20.7295C150.454 20.724 150.421 20.7206 150.391 20.7206C150.152 20.7206 149.971 20.7646 149.848 20.8519C149.726 20.9393 149.614 21.0706 149.516 21.246L149.297 21.6317L150.742 24.0054L151.267 24.1368V24.2248H149.498V24.1368L149.98 24.0054L148.938 22.2891H148.94ZM153.675 22.0787C153.167 22.0787 152.792 22.1908 152.55 22.4156C152.308 22.6405 152.187 22.9513 152.187 23.3488C152.187 23.6114 152.251 23.8157 152.379 23.9621C152.508 24.1079 152.648 24.1815 152.799 24.1815C152.939 24.1815 153.063 24.1402 153.171 24.0591C153.279 23.9773 153.371 23.8865 153.446 23.7875C153.534 23.6768 153.61 23.5454 153.674 23.3934V22.0801L153.675 22.0787ZM153.019 20.1952C152.844 20.1952 152.698 20.2551 152.581 20.3747C152.464 20.4944 152.406 20.6532 152.406 20.8519C152.406 20.8987 152.407 20.9393 152.41 20.9743C152.413 21.0094 152.418 21.0417 152.423 21.0706C152.429 21.0995 152.438 21.1291 152.449 21.1579L151.749 21.3333C151.737 21.3154 151.728 21.292 151.723 21.2631C151.717 21.2343 151.713 21.2019 151.71 21.1669C151.707 21.1318 151.706 21.085 151.706 21.0266C151.706 20.9042 151.735 20.7859 151.793 20.6718C151.851 20.5576 151.937 20.4559 152.051 20.3651C152.165 20.2743 152.302 20.2014 152.463 20.1464C152.624 20.0907 152.809 20.0632 153.019 20.0632C153.439 20.0632 153.77 20.1829 154.013 20.4222C154.254 20.6615 154.376 20.9798 154.376 21.3766V24.0041L154.901 24.1354V24.2234H153.676V23.6981C153.612 23.8205 153.53 23.9319 153.431 24.0309C153.349 24.1127 153.245 24.187 153.12 24.2544C152.995 24.3218 152.844 24.3555 152.669 24.3555C152.249 24.3555 151.932 24.2557 151.719 24.0577C151.506 23.859 151.4 23.5936 151.4 23.2607C151.4 23.0971 151.445 22.9334 151.535 22.7704C151.626 22.6068 151.763 22.461 151.947 22.3324C152.131 22.2038 152.365 22.1 152.652 22.0216C152.938 21.9425 153.279 21.9033 153.676 21.9033V21.378C153.676 20.94 153.61 20.6333 153.479 20.4586C153.347 20.2833 153.194 20.1959 153.019 20.1959V20.1952ZM157.396 22.3847C157.15 22.3847 156.967 22.4459 156.845 22.569C156.722 22.6914 156.646 22.864 156.617 23.0854L156.521 23.7861C156.498 23.9614 156.432 24.0997 156.324 24.2021C156.216 24.3046 156.063 24.3555 155.864 24.3555C155.742 24.3555 155.639 24.3348 155.557 24.2943C155.476 24.2537 155.408 24.2097 155.356 24.1629C155.292 24.1045 155.242 24.0371 155.207 23.9614L155.294 23.8741C155.318 23.9209 155.344 23.9587 155.373 23.9883C155.401 24.0171 155.431 24.0426 155.46 24.0625C155.489 24.0832 155.521 24.0928 155.556 24.0928C155.603 24.0928 155.647 24.0694 155.687 24.0226C155.728 23.9759 155.755 23.8975 155.766 23.7861L155.863 23.0854C155.886 22.91 155.953 22.7711 156.064 22.6694C156.175 22.5669 156.294 22.4865 156.423 22.4287C156.574 22.3647 156.737 22.3207 156.913 22.2974C156.673 22.274 156.46 22.2217 156.273 22.1399C156.116 22.0697 155.972 21.9694 155.84 21.838C155.709 21.7067 155.643 21.5244 155.643 21.2907C155.643 21.1504 155.676 21.0128 155.744 20.8788C155.811 20.7447 155.915 20.6278 156.059 20.5287C156.202 20.429 156.383 20.3493 156.602 20.2881C156.821 20.2269 157.085 20.1959 157.394 20.1959H158.97V20.2833L158.445 20.4146V24.0054L158.97 24.1368V24.2248H157.219V24.1368L157.744 24.0054V22.3854H157.394L157.396 22.3847ZM157.746 22.2093V20.3699H157.396C157.086 20.3699 156.849 20.4517 156.682 20.6154C156.516 20.7791 156.433 21.0039 156.433 21.29C156.433 21.576 156.516 21.8009 156.682 21.9645C156.849 22.1282 157.086 22.21 157.396 22.21H157.746V22.2093ZM97.8275 41.565C97.8289 41.0843 97.9272 40.638 98.1216 40.2255C98.2192 40.0178 98.3306 39.8246 98.4543 39.6458C98.5779 39.467 98.7154 39.3026 98.8652 39.1527L98.8686 39.1493H99.059L99.0569 39.1624C99.0343 39.3116 99.0171 39.467 99.0054 39.6272C98.9937 39.7654 98.9855 39.9153 98.9793 40.0756C98.9738 40.2358 98.971 40.3912 98.971 40.5411C98.971 40.6518 98.9717 40.7543 98.9731 40.8491C98.9745 40.9454 98.9765 41.0355 98.9793 41.1187C98.982 41.2019 98.9855 41.2796 98.9903 41.3532C98.9944 41.4268 98.9999 41.4955 99.0054 41.5581C99.0109 41.6269 99.0185 41.6915 99.0267 41.7513C99.0349 41.8118 99.0452 41.8675 99.0569 41.9191L99.0597 41.9329H91.877V41.7403L92.912 41.4818V30.2808L91.877 30.0223V29.8297H98.8872L98.8838 29.8435C98.8728 29.8951 98.8625 29.9508 98.8535 30.0113C98.8453 30.0711 98.8377 30.1357 98.8322 30.2045C98.8267 30.2671 98.8212 30.3352 98.8171 30.4094C98.813 30.483 98.8089 30.5614 98.8061 30.6446C98.8034 30.7278 98.8013 30.8179 98.7999 30.9141C98.7985 31.009 98.7979 31.1122 98.7979 31.2222C98.7979 31.304 98.7985 31.3838 98.7999 31.4615C98.8013 31.5399 98.8034 31.619 98.8061 31.6967C98.8089 31.7737 98.8123 31.8493 98.8171 31.9229C98.8212 31.9958 98.8267 32.0666 98.8322 32.1361C98.8439 32.297 98.8611 32.4524 98.8838 32.6016L98.8858 32.6147H98.6961L98.6927 32.6112C98.5429 32.4613 98.4055 32.297 98.2818 32.1175C98.1581 31.9387 98.0467 31.7455 97.9485 31.5378C97.754 31.1253 97.6557 30.679 97.6544 30.1983H94.3998V35.3535H96.0202L96.796 33.8002H96.9864V37.2741H96.796L96.0202 35.7207H94.3998V41.5664H97.8268L97.8275 41.565ZM102.165 38.0443H105.482L103.772 32.3823L102.165 38.0443ZM105.592 38.3943H102.073L101.216 41.3105L102.335 41.741V41.9322H99.7256V41.741L100.848 41.3092L104.212 29.5705H104.488L108.111 41.4804L109.148 41.7396V41.9322H105.504V41.7396L106.536 41.4818L105.593 38.3943H105.592ZM112.942 41.4811L113.977 41.7396V41.9322H110.418V41.7396L111.453 41.4811V30.1963H109.665C109.664 30.4349 109.639 30.6645 109.591 30.8866C109.542 31.1115 109.469 31.3281 109.37 31.5365C109.273 31.7441 109.162 31.9374 109.038 32.1161C108.914 32.2949 108.777 32.4593 108.627 32.6099L108.623 32.6133H108.435L108.453 32.3699L108.47 32.1354L108.487 31.9215L108.505 31.6953C108.516 31.5399 108.522 31.3824 108.522 31.2215C108.522 31.0029 108.516 30.8103 108.505 30.6439C108.499 30.5607 108.493 30.4823 108.487 30.4087C108.482 30.3331 108.476 30.265 108.47 30.2038C108.464 30.1323 108.459 30.0684 108.453 30.0099C108.448 29.9501 108.441 29.8937 108.436 29.8414L108.435 29.8291H115.964L115.96 29.8428C115.949 29.8944 115.939 29.9501 115.93 30.0106C115.922 30.0704 115.914 30.1351 115.909 30.2038C115.903 30.2664 115.898 30.3345 115.893 30.4087C115.889 30.4823 115.885 30.5607 115.882 30.6432C115.88 30.7264 115.878 30.8165 115.876 30.9128C115.875 31.0077 115.874 31.1108 115.874 31.2208C115.874 31.3027 115.875 31.3824 115.876 31.4601C115.878 31.5392 115.88 31.6176 115.882 31.6953C115.885 31.7723 115.889 31.848 115.893 31.9215C115.898 31.9944 115.903 32.0659 115.909 32.1347C115.914 32.2158 115.922 32.2949 115.93 32.3719C115.938 32.449 115.948 32.5253 115.96 32.6002L115.962 32.6133H115.772L115.769 32.6099C115.619 32.46 115.482 32.2956 115.358 32.1161C115.234 31.9374 115.123 31.7441 115.025 31.5365C114.83 31.1239 114.732 30.6776 114.731 30.1969H112.942V41.4818V41.4811ZM119.755 37.6179V41.4811L120.79 41.7396V41.9322H117.232V41.7396L118.267 41.4811V30.2801L117.232 30.0216V29.8291H120.348C121.062 29.8291 121.698 29.9274 122.258 30.1234C122.537 30.221 122.794 30.3386 123.029 30.4734C123.264 30.6088 123.477 30.7636 123.667 30.9368C123.857 31.1101 124.025 31.2992 124.171 31.5035C124.316 31.7084 124.44 31.9291 124.541 32.1656C124.642 32.4022 124.717 32.6504 124.768 32.9104C124.818 33.1696 124.844 33.4412 124.844 33.7238C124.844 34.0065 124.818 34.2774 124.768 34.5373C124.718 34.7972 124.642 35.0448 124.541 35.2813C124.44 35.5179 124.317 35.7386 124.171 35.9435C124.026 36.1485 123.858 36.3376 123.668 36.5101C123.477 36.6834 123.265 36.8375 123.03 36.9736C122.795 37.1091 122.538 37.226 122.258 37.3236C121.7 37.5196 121.063 37.6179 120.349 37.6179H119.756H119.755ZM119.755 37.2507H120.347C121.252 37.2507 121.951 36.9757 122.443 36.4263C122.689 36.1512 122.874 35.7888 122.997 35.3391C123.121 34.8887 123.182 34.3503 123.182 33.7238C123.182 32.4723 122.936 31.5715 122.443 31.0214C122.197 30.7464 121.9 30.5401 121.55 30.4032C121.201 30.2657 120.8 30.1969 120.347 30.1969H119.755V37.2507ZM126.657 38.045H129.974L128.264 32.3829L126.657 38.045ZM130.083 38.395H126.564L125.707 41.3112L126.826 41.7417V41.9329H124.217V41.7417L125.34 41.3099L128.704 29.5712H128.979L132.602 41.4811L133.251 41.6434L133.095 40.8663L133.116 40.8767C133.139 40.8877 133.163 40.898 133.188 40.9062C133.214 40.9145 133.241 40.922 133.269 40.9275C133.296 40.933 133.325 40.9379 133.355 40.9427C133.383 40.9468 133.412 40.9509 133.44 40.9537C133.497 40.9592 133.56 40.9619 133.629 40.9619C133.926 40.9619 134.2 40.8877 134.451 40.7391C134.576 40.6649 134.693 40.5528 134.802 40.4036C134.91 40.253 135.011 40.0652 135.102 39.8383C135.194 39.6114 135.275 39.3357 135.347 39.0097C135.419 38.6838 135.481 38.3076 135.532 37.8827C135.584 37.457 135.623 36.9626 135.648 36.3994C135.675 35.8363 135.687 35.2036 135.687 34.5016V30.3675L134.566 30.0223V29.8304C136.958 29.8366 139.354 29.8366 141.746 29.8304V30.023L140.711 30.2815V41.4825L141.746 41.741V41.9335H138.188V41.741L139.223 41.4825V30.1976H136.054V34.5009C136.054 35.0585 136.048 35.5798 136.035 36.0652C136.022 36.5507 136.002 36.9991 135.976 37.4096C135.95 37.8208 135.919 38.2011 135.881 38.5511C135.844 38.9011 135.801 39.2194 135.752 39.5076C135.703 39.7957 135.649 40.057 135.59 40.2915C135.531 40.5266 135.467 40.735 135.398 40.9165C135.329 41.0981 135.257 41.2597 135.181 41.4006C135.106 41.5423 135.028 41.6633 134.947 41.7651C134.866 41.8662 134.783 41.9514 134.697 42.0195C134.611 42.0876 134.524 42.1398 134.433 42.1742C134.343 42.2093 134.253 42.2354 134.162 42.2526C134.071 42.2698 133.979 42.2787 133.886 42.2787C133.852 42.2787 133.819 42.2781 133.787 42.2767C133.755 42.2753 133.725 42.2732 133.695 42.2705C133.666 42.2677 133.637 42.2643 133.609 42.2595C133.581 42.2554 133.552 42.2506 133.522 42.2444C133.464 42.2327 133.411 42.2155 133.364 42.1914L133.359 42.1887L133.309 41.9335H129.995V41.741L131.027 41.4831L130.084 38.3957L130.083 38.395ZM146.391 34.4892C146.748 34.4892 147.086 34.5132 147.404 34.5607C147.722 34.6081 148.021 34.6797 148.301 34.7745C148.58 34.8694 148.837 34.9836 149.072 35.1163C149.307 35.249 149.52 35.4003 149.71 35.5708C149.9 35.7407 150.069 35.925 150.214 36.1223C150.359 36.3197 150.482 36.5315 150.583 36.7563C150.684 36.9812 150.76 37.215 150.811 37.4577C150.861 37.6998 150.887 37.9514 150.887 38.2107C150.887 38.4699 150.861 38.7209 150.811 38.9636C150.761 39.2064 150.684 39.4402 150.583 39.665C150.482 39.8899 150.359 40.1017 150.214 40.299C150.068 40.4964 149.9 40.6807 149.71 40.8505C149.52 41.0204 149.307 41.1723 149.072 41.305C148.837 41.4378 148.58 41.5519 148.301 41.6468C148.021 41.7417 147.722 41.8132 147.404 41.8607C147.086 41.9081 146.748 41.9322 146.391 41.9322H143.275V41.7396L144.31 41.4811V30.2801L143.275 30.0216V29.8291H146.833V30.0216L145.798 30.2801V34.4885H146.391V34.4892ZM145.798 41.565H146.391C146.844 41.565 147.245 41.4983 147.594 41.3649C147.943 41.2315 148.241 41.0321 148.487 40.7659C148.733 40.4998 148.917 40.1539 149.041 39.7283C149.164 39.302 149.226 38.7965 149.226 38.2107C149.226 37.0396 148.98 36.1883 148.487 35.6554C148.241 35.3893 147.943 35.1899 147.594 35.0565C147.244 34.9231 146.844 34.8564 146.391 34.8564H145.798V41.565ZM154.509 35.7194V41.4811L155.544 41.7396V41.9322H151.985V41.7396L153.02 41.4811V30.2801L151.985 30.0216V29.8291H155.544V30.0216L154.509 30.2801V35.3515H158.022V30.2801L156.987 30.0216V29.8291H160.545V30.0216L159.51 30.2801V41.4811L160.545 41.7396V41.9322H156.987V41.7396L158.022 41.4811V35.7194H154.509ZM163.653 38.0443H166.97L165.261 32.3823L163.654 38.0443H163.653ZM167.08 38.3943H163.561L162.704 41.3105L163.822 41.741V41.9322H161.213V41.741L162.336 41.3092L165.7 29.5705H165.975L169.598 41.4804L170.635 41.7396V41.9322H166.99V41.7396L168.023 41.4818L167.08 38.3943ZM179 29.8401V30.0216L177.965 30.2801V41.4811L179 41.7396V41.9322H175.442V41.7396L176.477 41.4811V35.892H175.798C175.602 35.892 175.422 35.9016 175.255 35.9222C175.089 35.9422 174.937 35.9724 174.8 36.0123C174.663 36.0522 174.538 36.1038 174.425 36.1663C174.313 36.2289 174.212 36.3032 174.124 36.3891C174.035 36.4751 173.956 36.5727 173.886 36.6827C173.816 36.7928 173.755 36.9152 173.704 37.0493C173.652 37.184 173.608 37.3339 173.57 37.499C173.533 37.664 173.503 37.8442 173.48 38.0395L173.135 41.0596C173.1 41.3614 172.959 41.6255 172.709 41.8517C172.585 41.9652 172.442 42.0498 172.281 42.1068C172.12 42.1632 171.942 42.1914 171.745 42.1914C171.624 42.1914 171.512 42.1811 171.411 42.1612C171.31 42.1405 171.218 42.1103 171.137 42.0697C171.056 42.0291 170.982 41.9872 170.916 41.9439C170.849 41.9005 170.789 41.8552 170.738 41.8091C170.674 41.7513 170.617 41.6888 170.568 41.6221C170.519 41.5554 170.477 41.4838 170.442 41.4089L170.438 41.402L170.627 41.2129L170.634 41.2267C170.679 41.3174 170.73 41.3917 170.787 41.4481C170.815 41.4763 170.844 41.5031 170.872 41.5272C170.901 41.5512 170.929 41.5739 170.958 41.5932C170.985 41.6124 171.015 41.6276 171.045 41.6372C171.075 41.6468 171.107 41.6516 171.141 41.6516C171.241 41.6516 171.33 41.6069 171.408 41.5175C171.448 41.4728 171.48 41.4123 171.505 41.336C171.531 41.259 171.549 41.1661 171.561 41.0582L171.906 38.0381C171.935 37.7727 171.995 37.534 172.088 37.3229C172.181 37.1118 172.305 36.9275 172.461 36.7715C172.617 36.616 172.778 36.4785 172.946 36.3602C173.113 36.242 173.286 36.1423 173.465 36.0618C173.673 35.9697 173.892 35.8933 174.122 35.8321C174.322 35.7799 174.531 35.7393 174.748 35.7104C174.469 35.6809 174.202 35.6348 173.95 35.5736C173.667 35.5048 173.402 35.4147 173.155 35.3054C173.05 35.2593 172.947 35.2071 172.845 35.15C172.743 35.0922 172.641 35.029 172.54 34.9595C172.439 34.8901 172.344 34.8131 172.254 34.7278C172.165 34.6425 172.081 34.549 172.003 34.4479C171.925 34.3468 171.854 34.2389 171.791 34.1227C171.727 34.0071 171.671 33.8841 171.621 33.7548C171.573 33.6248 171.536 33.4852 171.511 33.336C171.486 33.1868 171.474 33.0293 171.474 32.8615C171.474 32.6539 171.496 32.4524 171.539 32.2571C171.582 32.0618 171.648 31.8734 171.734 31.6919C171.82 31.5096 171.93 31.3384 172.063 31.1782C172.195 31.018 172.351 30.8688 172.53 30.7299C172.709 30.5916 172.911 30.4672 173.135 30.3578C173.36 30.2485 173.608 30.1529 173.879 30.0725C174.15 29.992 174.445 29.9315 174.765 29.8909C175.084 29.8504 175.429 29.8304 175.797 29.8304H178.999V29.8414L179 29.8401ZM173.136 32.8602C173.136 33.2906 173.193 33.6702 173.308 34.0003C173.422 34.3296 173.594 34.6081 173.823 34.8378C174.051 35.0668 174.33 35.2387 174.659 35.3529C174.988 35.4677 175.368 35.5248 175.798 35.5248H176.477V30.1969H175.798C174.939 30.1969 174.28 30.4259 173.823 30.8839C173.594 31.1129 173.422 31.3921 173.308 31.7214C173.193 32.0508 173.136 32.4311 173.136 32.8609V32.8602ZM85.8633 51.718H86.4557C87.1697 51.718 87.806 51.8156 88.3654 52.0123C88.6444 52.1099 88.9021 52.2268 89.1372 52.3623C89.3722 52.4977 89.5845 52.6525 89.7749 52.8251C89.9652 52.9983 90.1329 53.1874 90.2786 53.3924C90.4243 53.5973 90.548 53.818 90.6483 54.0545C90.7493 54.2911 90.8249 54.5393 90.8758 54.7986C90.9259 55.0585 90.9514 55.3294 90.9514 55.6121C90.9514 55.8947 90.9259 56.1656 90.8758 56.4255C90.8256 56.6855 90.7493 56.933 90.649 57.1696C90.548 57.4061 90.425 57.6268 90.2793 57.8317C90.1336 58.0367 89.9659 58.2258 89.7756 58.399C89.5852 58.5723 89.3729 58.7264 89.1378 58.8625C88.9028 58.998 88.6458 59.1149 88.3661 59.2125C87.8074 59.4085 87.1704 59.5068 86.4564 59.5068H83.3406V59.3143L84.3755 59.0557V47.8548L83.3406 47.5956V47.403H89.6608L89.6581 47.4168C89.6464 47.4684 89.6368 47.5241 89.6278 47.5839C89.6196 47.6437 89.612 47.7083 89.6065 47.7771C89.601 47.8397 89.5955 47.9078 89.5914 47.982C89.5873 48.0556 89.5832 48.134 89.5804 48.2165C89.5777 48.2997 89.5756 48.3898 89.5742 48.4861C89.5728 48.581 89.5722 48.6841 89.5722 48.7941C89.5722 48.8759 89.5728 48.9557 89.5742 49.0334C89.5756 49.1118 89.5777 49.1909 89.5804 49.2686C89.5832 49.3456 89.5866 49.4212 89.5914 49.4948C89.5955 49.5677 89.601 49.6385 89.6065 49.708C89.612 49.7884 89.6196 49.8675 89.6278 49.9452C89.6361 50.0222 89.6464 50.0986 89.6581 50.1735L89.6601 50.1866H89.4704L89.467 50.1831C89.3172 50.0332 89.1798 49.8689 89.0561 49.6901C88.9324 49.5113 88.821 49.3181 88.7228 49.1104C88.6245 48.9028 88.551 48.6862 88.5022 48.4606C88.4541 48.2392 88.4293 48.0088 88.4287 47.7702H85.864V51.7173L85.8633 51.718ZM85.8633 59.1389H86.4557C87.3607 59.1389 88.0596 58.8639 88.5517 58.3145C88.7977 58.0394 88.9825 57.677 89.1056 57.2273C89.2292 56.7769 89.2904 56.2385 89.2904 55.6121C89.2904 54.3606 89.0444 53.4597 88.5517 52.9096C88.3056 52.6346 88.0081 52.429 87.659 52.2914C87.3092 52.1539 86.9086 52.0852 86.4557 52.0852H85.8633V59.1389ZM94.7461 57.2541V59.0551L95.781 59.3136V59.5061H92.2227V59.3136L93.2576 59.0551V47.8541L92.2227 47.5949V47.4023H95.781V47.5949L94.7461 47.8541V56.5142L98.2598 49.4824V47.8541L97.2249 47.5949V47.4023H100.782V47.5949L99.7476 47.8541V59.0551L100.782 59.3136V59.5061H97.2249V59.3136L98.2598 59.0551V50.2223L94.7461 57.2541ZM104.836 51.718H105.428C106.142 51.718 106.778 51.8156 107.338 52.0123C107.617 52.1099 107.874 52.2268 108.109 52.3623C108.344 52.4977 108.557 52.6525 108.747 52.8251C108.938 52.9983 109.105 53.1874 109.251 53.3924C109.397 53.5973 109.52 53.818 109.621 54.0545C109.722 54.2911 109.797 54.5393 109.847 54.7986C109.898 55.0585 109.923 55.3294 109.923 55.6121C109.923 55.8947 109.898 56.1656 109.847 56.4255C109.797 56.6855 109.721 56.933 109.621 57.1696C109.52 57.4061 109.397 57.6268 109.251 57.8317C109.105 58.0367 108.937 58.2258 108.747 58.399C108.557 58.5723 108.344 58.7264 108.109 58.8625C107.874 58.998 107.617 59.1149 107.338 59.2125C106.779 59.4085 106.142 59.5068 105.428 59.5068H102.312V59.3143L103.347 59.0557V47.8548L102.312 47.5956V47.403H108.632L108.63 47.4168C108.618 47.4684 108.608 47.5241 108.599 47.5839C108.591 47.6437 108.584 47.7083 108.578 47.7771C108.573 47.8397 108.567 47.9078 108.563 47.982C108.559 48.0556 108.555 48.134 108.552 48.2165C108.549 48.2997 108.547 48.3898 108.546 48.4861C108.544 48.581 108.544 48.6841 108.544 48.7941C108.544 48.8759 108.544 48.9557 108.546 49.0334C108.547 49.1118 108.549 49.1909 108.552 49.2686C108.555 49.3456 108.558 49.4212 108.563 49.4948C108.567 49.5677 108.573 49.6385 108.578 49.708C108.584 49.7884 108.591 49.8675 108.599 49.9452C108.608 50.0222 108.618 50.0986 108.63 50.1735L108.632 50.1866H108.442L108.439 50.1831C108.289 50.0332 108.151 49.8689 108.028 49.6901C107.904 49.5113 107.793 49.3181 107.694 49.1104C107.596 48.9028 107.523 48.6862 107.474 48.4606C107.426 48.2392 107.401 48.0088 107.4 47.7702H104.836V51.7173V51.718ZM104.836 59.1389H105.428C106.333 59.1389 107.032 58.8639 107.524 58.3145C107.77 58.0394 107.955 57.677 108.078 57.2273C108.202 56.7769 108.263 56.2385 108.263 55.6121C108.263 54.3606 108.017 53.4597 107.524 52.9096C107.278 52.6346 106.98 52.429 106.631 52.2914C106.282 52.1539 105.881 52.0852 105.428 52.0852H104.836V59.1389ZM112.856 52.0742C112.856 52.6318 112.85 53.1531 112.837 53.6385C112.824 54.124 112.804 54.5717 112.778 54.9829C112.752 55.3941 112.721 55.775 112.683 56.1243C112.646 56.4743 112.603 56.7927 112.554 57.0808C112.506 57.369 112.451 57.6303 112.392 57.8648C112.333 58.0999 112.269 58.3076 112.2 58.4891C112.13 58.6707 112.059 58.8323 111.983 58.9732C111.908 59.1149 111.83 59.2366 111.749 59.3377C111.668 59.4388 111.585 59.524 111.499 59.5921C111.414 59.6602 111.326 59.7117 111.236 59.7468C111.146 59.7819 111.056 59.808 110.964 59.8252C110.873 59.8424 110.781 59.8513 110.689 59.8513C110.654 59.8513 110.621 59.8507 110.589 59.8493C110.557 59.8479 110.526 59.8458 110.498 59.8431C110.468 59.8403 110.439 59.8362 110.411 59.8321C110.383 59.828 110.354 59.8225 110.324 59.817C110.266 59.8053 110.214 59.7874 110.166 59.764L110.161 59.7613C110.074 59.3205 109.986 58.8797 109.897 58.4396L109.917 58.4499C109.94 58.4609 109.964 58.4712 109.99 58.4795C110.015 58.4878 110.042 58.4953 110.07 58.5008C110.098 58.5063 110.126 58.5111 110.156 58.5159C110.185 58.5201 110.214 58.5242 110.242 58.5269C110.299 58.5324 110.361 58.5352 110.431 58.5352C110.728 58.5352 111.002 58.4609 111.253 58.3124C111.378 58.2388 111.495 58.1267 111.604 57.9768C111.712 57.8269 111.813 57.6385 111.904 57.4116C111.996 57.1854 112.077 56.9089 112.15 56.583C112.222 56.2571 112.283 55.8809 112.335 55.456C112.387 55.0303 112.426 54.5359 112.451 53.9727C112.477 53.4095 112.49 52.7769 112.49 52.0748V47.9408L111.369 47.5956V47.4037H118.549V47.5963L117.514 47.8555V59.0564L118.549 59.315V59.5075H114.99V59.315L116.025 59.0564V47.7716H112.857V52.0748L112.856 52.0742ZM122.601 57.2541V59.0551L123.635 59.3136V59.5061H120.077V59.3136L121.112 59.0551V47.8541L120.077 47.5949V47.4023H123.635V47.5949L122.601 47.8541V56.5142L126.114 49.4824V47.8541L125.079 47.5949V47.4023H128.638V47.5949L127.603 47.8541V59.0551L128.638 59.3136V59.5061H125.079V59.3136L126.114 59.0551V50.2223L122.601 57.2541ZM138.21 53.4549C138.21 54.5146 138.091 55.4388 137.856 56.2282C137.738 56.6229 137.601 56.9846 137.445 57.3126C137.29 57.6413 137.116 57.9363 136.923 58.1989C136.729 58.4616 136.524 58.6906 136.307 58.8866C136.089 59.0826 135.859 59.2455 135.617 59.3755C135.374 59.5055 135.131 59.6031 134.886 59.6677C134.64 59.7331 134.394 59.7654 134.146 59.7654C133.897 59.7654 133.651 59.7331 133.405 59.6677C133.16 59.6031 132.917 59.5055 132.674 59.3755C132.432 59.2455 132.201 59.0826 131.984 58.8866C131.766 58.6906 131.561 58.4609 131.369 58.1989C131.175 57.937 131.002 57.6413 130.846 57.3126C130.69 56.9839 130.554 56.6229 130.435 56.2282C130.317 55.8335 130.228 55.4051 130.17 54.943C130.111 54.4809 130.081 53.9844 130.081 53.4549C130.081 52.3953 130.2 51.4711 130.435 50.6817C130.554 50.287 130.69 49.926 130.846 49.5973C131.001 49.2686 131.175 48.9736 131.369 48.7109C131.562 48.4489 131.767 48.2193 131.984 48.0233C132.202 47.8273 132.432 47.6636 132.674 47.5344C132.916 47.4044 133.16 47.3068 133.405 47.2421C133.651 47.1775 133.897 47.1445 134.146 47.1445C134.394 47.1445 134.64 47.1768 134.886 47.2421C135.131 47.3068 135.374 47.4044 135.617 47.5344C135.859 47.6643 136.089 47.8273 136.307 48.0233C136.525 48.2193 136.73 48.4489 136.923 48.7109C137.116 48.9729 137.289 49.2686 137.445 49.5973C137.601 49.926 137.738 50.2877 137.856 50.6817C137.974 51.0764 138.063 51.5048 138.121 51.9669C138.18 52.429 138.21 52.9248 138.21 53.4549ZM136.549 53.4549C136.549 52.8629 136.531 52.321 136.495 51.8314C136.459 51.3411 136.405 50.9024 136.334 50.5146C136.261 50.1268 136.178 49.7781 136.083 49.4694C135.989 49.1606 135.883 48.8918 135.765 48.6621C135.53 48.2034 135.27 47.883 134.985 47.7001C134.842 47.6086 134.7 47.5399 134.56 47.4945C134.42 47.4491 134.282 47.4257 134.145 47.4257C134.008 47.4257 133.87 47.4484 133.73 47.4945C133.59 47.5406 133.448 47.6086 133.305 47.7001C133.019 47.883 132.759 48.2034 132.524 48.6621C132.407 48.8918 132.3 49.1606 132.206 49.4694C132.111 49.7781 132.028 50.1268 131.956 50.5146C131.885 50.9024 131.83 51.3411 131.795 51.8314C131.759 52.3217 131.741 52.8629 131.741 53.4549C131.741 54.047 131.759 54.5882 131.795 55.0784C131.83 55.5687 131.885 56.0074 131.956 56.3953C132.028 56.7831 132.111 57.1317 132.206 57.4405C132.301 57.7492 132.407 58.0181 132.524 58.2478C132.759 58.7064 133.019 59.0269 133.305 59.2098C133.448 59.3012 133.59 59.37 133.73 59.4154C133.869 59.4608 134.007 59.4841 134.145 59.4841C134.282 59.4841 134.42 59.4614 134.56 59.4154C134.7 59.3693 134.842 59.3012 134.985 59.2098C135.27 59.0269 135.531 58.7057 135.765 58.2478C135.883 58.0181 135.989 57.7492 136.083 57.4405C136.178 57.1317 136.261 56.7831 136.334 56.3953C136.405 56.0074 136.459 55.5687 136.495 55.0784C136.531 54.5882 136.549 54.047 136.549 53.4549ZM143.729 59.0551L144.764 59.3136V59.5061H141.205V59.3136L142.24 59.0551V47.7702H140.451C140.451 48.0088 140.426 48.2385 140.378 48.4606C140.329 48.6855 140.255 48.9021 140.157 49.1104C140.059 49.3181 139.948 49.5113 139.824 49.6901C139.7 49.8689 139.563 50.0332 139.413 50.1831L139.41 50.1866H139.221L139.239 49.9432L139.256 49.7087L139.273 49.4955L139.291 49.2693C139.302 49.1146 139.308 48.9564 139.308 48.7955C139.308 48.5775 139.302 48.385 139.291 48.2179C139.285 48.1347 139.279 48.0563 139.273 47.9827C139.267 47.9071 139.262 47.839 139.256 47.7778C139.25 47.7063 139.245 47.6416 139.239 47.5839C139.234 47.5241 139.228 47.4677 139.222 47.4154L139.221 47.403H146.75L146.747 47.4168C146.736 47.4684 146.725 47.5241 146.717 47.5839C146.708 47.6437 146.701 47.7083 146.695 47.7771C146.69 47.8397 146.684 47.9078 146.68 47.982C146.676 48.0556 146.672 48.134 146.669 48.2165C146.666 48.2997 146.664 48.3898 146.663 48.4861C146.662 48.581 146.661 48.6841 146.661 48.7941C146.661 48.8759 146.662 48.9557 146.663 49.0334C146.664 49.1118 146.666 49.1909 146.669 49.2686C146.672 49.3456 146.675 49.4212 146.68 49.4948C146.684 49.5677 146.69 49.6385 146.695 49.708C146.701 49.7884 146.708 49.8675 146.717 49.9452C146.725 50.0222 146.735 50.0986 146.747 50.1735L146.749 50.1866H146.558L146.555 50.1831C146.405 50.0332 146.268 49.8689 146.144 49.6901C146.02 49.5113 145.909 49.3181 145.812 49.1104C145.617 48.6978 145.519 48.2509 145.517 47.7709H143.729V59.0557V59.0551ZM153.969 59.1389C153.97 58.6583 154.068 58.212 154.263 57.7994C154.36 57.5918 154.472 57.3985 154.595 57.2197C154.719 57.041 154.856 56.8766 155.006 56.726L155.01 56.7226H155.2L155.198 56.7356C155.175 56.8849 155.158 57.0403 155.146 57.2005C155.135 57.3387 155.127 57.4886 155.121 57.6488C155.116 57.8091 155.112 57.9645 155.112 58.1144C155.112 58.2251 155.113 58.3275 155.114 58.4224C155.116 58.5187 155.118 58.6088 155.12 58.692C155.123 58.7752 155.127 58.8536 155.131 58.9272C155.135 59.0007 155.141 59.0695 155.146 59.1314C155.152 59.2001 155.16 59.2648 155.168 59.3253C155.176 59.3858 155.186 59.4415 155.198 59.4931L155.201 59.5068H148.018V59.3143L149.053 59.0557V47.8548L148.018 47.5956V47.403H155.028L155.026 47.4168C155.014 47.4684 155.004 47.5241 154.995 47.5839C154.987 47.6437 154.979 47.7083 154.974 47.7771C154.968 47.8397 154.963 47.9078 154.959 47.982C154.955 48.0556 154.951 48.134 154.948 48.2165C154.945 48.2997 154.943 48.3898 154.942 48.4861C154.94 48.581 154.94 48.6834 154.94 48.7941C154.94 48.8759 154.94 48.9557 154.942 49.0334C154.943 49.1118 154.945 49.1909 154.948 49.2686C154.951 49.3456 154.954 49.4212 154.959 49.4948C154.963 49.5677 154.968 49.6385 154.974 49.708C154.986 49.8689 155.003 50.0236 155.026 50.1728L155.028 50.1859H154.838L154.835 50.1825C154.685 50.0326 154.547 49.8682 154.424 49.6894C154.3 49.5106 154.189 49.3174 154.09 49.1097C153.896 48.6972 153.798 48.2502 153.796 47.7702H150.542V52.9254H152.162L152.938 51.3721H153.128V54.846H152.938L152.162 53.2926H150.542V59.1383H153.969V59.1389ZM159.251 55.1486V59.0551L160.286 59.3136V59.5061H156.728V59.3136L157.763 59.0551V47.8541L156.728 47.5949V47.4023H160.286V47.5949L159.251 47.8541V54.3537L161.386 49.7396C161.501 49.4921 161.612 49.2658 161.716 49.0616C161.821 48.8574 161.921 48.6745 162.016 48.5129C162.111 48.3513 162.203 48.2062 162.292 48.0783C162.381 47.9504 162.468 47.8383 162.552 47.7427C162.636 47.6471 162.719 47.566 162.801 47.5C162.884 47.4333 162.966 47.381 163.047 47.3432C163.128 47.3054 163.211 47.2772 163.295 47.2586C163.379 47.2394 163.465 47.2304 163.552 47.2304C163.575 47.2304 163.598 47.2318 163.622 47.2352C163.646 47.238 163.669 47.2428 163.693 47.2483L163.831 47.2827C163.854 47.2882 163.878 47.2944 163.904 47.2999C163.928 47.3054 163.955 47.3109 163.985 47.3171L163.993 47.3184C164.082 47.7572 164.169 48.1972 164.256 48.6366L164.067 48.5988L163.976 48.5816L163.878 48.5644C163.844 48.5589 163.807 48.5548 163.767 48.5514C163.727 48.5486 163.684 48.5473 163.638 48.5473C163.381 48.5473 163.151 48.5761 162.949 48.6332C162.748 48.6903 162.574 48.7762 162.429 48.8897C162.283 49.0045 162.153 49.1331 162.041 49.2762C161.928 49.4192 161.831 49.5766 161.751 49.7486L160.891 51.6423L164.594 59.0544L165.36 59.2455L166.303 58.8825L169.666 47.1438H169.942L173.564 59.0544L174.601 59.3136V59.5061H170.957V59.3136L171.989 59.0551L171.046 55.9676H167.527L166.67 58.8838L167.789 59.3143V59.5055H161.972V59.3129L163.002 59.0551L160.12 53.2892L159.252 55.1472L159.251 55.1486ZM167.62 55.6182H170.936L169.227 49.9562L167.62 55.6182Z" fill="currentColor"></path> </svg> 